<svg width="102" height="58" viewBox="0 0 102 58" fill="none" xmlns="http://www.w3.org/2000/svg">
<path d="M86.9671 57.1315C90.3138 57.1229 93.0198 54.4027 93.0111 51.056C93.0025 47.7093 90.2824 45.0033 86.9356 45.012C83.5889 45.0207 80.8829 47.7408 80.8916 51.0875C80.9003 54.4342 83.6204 57.1402 86.9671 57.1315Z" fill="#7A9EAE"/>
<path d="M94.4578 57.1315C97.8045 57.1229 100.511 54.4027 100.502 51.056C100.493 47.7093 97.7731 45.0033 94.4264 45.012C91.0796 45.0207 88.3736 47.7408 88.3823 51.0875C88.391 54.4342 91.1111 57.1402 94.4578 57.1315Z" fill="#4B8CA9"/>
<path d="M21.2189 15.3018L6.32198 15.3859C4.38622 15.3859 2.78711 13.7868 2.78711 11.851V3.77134C2.78711 1.83557 4.38622 0.236465 6.32198 0.236465H21.1348C23.0705 0.236465 24.6697 1.83557 24.6697 3.77134V11.851C24.7538 13.7027 23.1547 15.3018 21.2189 15.3018Z" fill="#4B8CA9"/>
<path d="M96.2929 8.31582H86.3616C84.0892 8.31582 82.2375 6.46421 82.2375 4.19179C82.2375 1.91937 84.0892 0.0677795 86.3616 0.0677795H96.2929C98.5653 0.0677795 100.417 1.91937 100.417 4.19179C100.417 6.46421 98.5653 8.31582 96.2929 8.31582Z" fill="#756F6F"/>
<path d="M2.02968 29.188L1.10388 29.693H1.01972C0.935551 29.693 0.85139 29.6088 0.85139 29.6088C0.767227 29.5247 0.851389 29.3564 0.935553 29.2722L2.19801 28.5147C2.28217 28.4306 2.4505 28.5147 2.53466 28.5989C2.53466 28.683 2.53466 28.683 2.53466 28.7672V34.5745C2.53466 34.6587 2.4505 34.827 2.28217 34.827C2.19801 34.827 2.02968 34.7428 2.02968 34.5745V29.188Z" fill="#544545"/>
<path d="M4.04955 34.4907L6.99527 31.7975C7.33193 31.4608 7.50025 31.04 7.50025 30.6192C7.50025 30.1984 7.33193 29.8617 7.07944 29.5251C6.74278 29.1884 6.32196 29.0201 5.90114 29.0201C5.48033 29.0201 5.14367 29.1884 4.80701 29.4409L4.47036 29.6934C4.3862 29.7775 4.21787 29.7775 4.13371 29.6934C4.04955 29.6092 4.04955 29.4409 4.13371 29.3567L4.47036 29.1042C4.89118 28.7676 5.39616 28.5993 5.90114 28.5993C6.49029 28.5993 6.99527 28.8517 7.41609 29.2726C7.75275 29.6934 8.00523 30.1984 8.00523 30.7033C8.00523 31.2925 7.75274 31.7975 7.33192 32.2183L4.80701 34.4907H7.83691C7.92107 34.4907 8.0894 34.5749 8.0894 34.7432C8.0894 34.8274 8.00524 34.9957 7.83691 34.9957H4.30203C4.21787 34.9957 4.13371 34.9957 4.13371 34.9115C3.96538 34.7432 3.96538 34.5749 4.04955 34.4907Z" fill="#544545"/>
<path d="M13.2235 28.9357L11.6244 30.619C12.0453 30.7032 12.3819 30.8715 12.7186 31.2081C13.1394 31.629 13.3077 32.2181 13.3077 32.7231C13.3077 33.3122 13.1394 33.8172 12.6344 34.238C12.2136 34.6588 11.6244 34.9113 11.1194 34.9113C10.6145 34.9113 10.0253 34.743 9.6045 34.238C9.52034 34.1539 9.52034 33.9855 9.6045 33.9014C9.68867 33.8172 9.857 33.8172 9.94116 33.9014C10.2778 34.238 10.6986 34.4064 11.1194 34.4064C11.5403 34.4064 11.9611 34.238 12.2977 33.9014C12.6344 33.5647 12.8027 33.1439 12.8027 32.7231C12.8027 32.3023 12.6344 31.8814 12.2977 31.5448C11.9611 31.2081 11.5403 31.0398 11.1194 31.0398C11.0353 31.0398 10.9511 31.0398 10.9511 30.9556C10.867 30.8715 10.867 30.7032 10.9511 30.619L12.5502 29.0199H10.1095C9.94116 29.0199 9.85699 28.9357 9.85699 28.7674C9.85699 28.5991 9.94116 28.5149 10.1095 28.5149H13.0552C13.2235 28.5149 13.3077 28.5991 13.3077 28.7674C13.3077 28.7674 13.3077 28.8516 13.2235 28.9357C13.3077 28.9357 13.3077 28.8516 13.2235 28.9357Z" fill="#544545"/>
<path d="M18.6099 33.5647H15.1592C15.075 33.5647 15.075 33.5647 14.9909 33.4806C14.9067 33.3964 14.9067 33.2281 14.9909 33.1439L18.6941 28.5149C18.7782 28.4307 18.8624 28.4307 19.0307 28.5149L19.1149 28.5991V32.9756H19.5357C19.704 32.9756 19.7882 33.0597 19.7882 33.2281C19.7882 33.3122 19.704 33.4806 19.5357 33.4806H19.1149V34.5747C19.1149 34.6589 19.0307 34.8272 18.8624 34.8272C18.7782 34.8272 18.6099 34.743 18.6099 34.5747V33.5647ZM18.6099 33.1439V29.4407L15.58 33.1439H18.6099Z" fill="#544545"/>
<path d="M26.6054 34.238C26.5212 34.1539 26.5212 33.9855 26.6054 33.9014C26.6896 33.8172 26.8579 33.8172 26.9421 33.9014C27.2787 34.238 27.6995 34.4064 28.1204 34.4064C28.5412 34.4064 28.962 34.238 29.2986 33.9014C29.6353 33.5647 29.8036 33.1439 29.8036 32.7231C29.8036 32.3023 29.6353 31.8814 29.2986 31.5448C28.962 31.2081 28.5412 31.0398 28.1204 31.0398C27.6995 31.0398 27.2787 31.2081 26.9421 31.5448C26.8579 31.629 26.6896 31.629 26.6054 31.5448L26.5212 31.4606V31.3765C26.5212 31.3765 26.5212 31.3765 26.5212 31.2923L26.8579 28.7674C26.8579 28.6832 26.8579 28.5991 26.9421 28.5991C26.9421 28.5991 27.0262 28.5149 27.1104 28.5149H30.0561C30.2244 28.5149 30.3086 28.5991 30.3086 28.7674C30.3086 28.9357 30.2244 29.0199 30.0561 29.0199H27.2787L27.0262 30.8715C27.3629 30.7032 27.6995 30.619 28.1204 30.619C28.7095 30.619 29.2145 30.7873 29.6353 31.2081C30.0561 31.629 30.2244 32.1339 30.2244 32.7231C30.2244 33.2281 30.0561 33.8172 29.6353 34.238C29.2145 34.6588 28.6253 34.8272 28.1204 34.8272C27.5312 34.8272 27.0262 34.6588 26.6054 34.238Z" fill="#544545"/>
<path d="M32.5811 29.8615C33.0019 29.104 33.7594 28.5149 34.7693 28.5149C34.8535 28.5149 35.0218 28.5991 35.0218 28.6832C35.0218 28.8516 34.9377 28.9357 34.7693 28.9357C33.8435 28.9357 33.3386 29.4407 32.9177 30.114C32.6653 30.4507 32.5811 30.9556 32.4969 31.3765C32.9177 30.9556 33.4227 30.619 34.096 30.619C35.2743 30.619 36.2001 31.5448 36.2001 32.7231C36.2001 33.9014 35.2743 34.8272 34.096 34.8272C33.0019 34.8272 31.9919 33.9014 31.9919 32.8072C31.9919 32.6389 31.9919 32.5548 31.9919 32.3864C31.9919 31.5448 32.1603 30.619 32.5811 29.8615ZM32.4969 32.8072C32.4969 32.8914 32.4969 32.8914 32.4969 32.8914V32.9756C32.5811 33.8172 33.3386 34.4064 34.1802 34.4064C35.106 34.4064 35.8635 33.6489 35.8635 32.7231C35.8635 31.7973 35.106 31.0398 34.1802 31.0398C33.1702 31.0398 32.4969 31.7973 32.4969 32.8072Z" fill="#544545"/>
<path d="M38.5568 34.4903L40.9134 28.9356H37.8835C37.7993 28.9356 37.631 28.8514 37.631 28.6831C37.631 28.5989 37.7151 28.4306 37.8835 28.4306H41.25C41.3342 28.4306 41.3342 28.4306 41.4183 28.4306C41.5025 28.4306 41.5025 28.5147 41.5025 28.5989V28.6831C41.5025 28.7672 41.5025 28.7672 41.5025 28.7672L39.0618 34.6587C39.0618 34.7428 38.9776 34.827 38.8934 34.827H38.8093C38.5568 34.7428 38.4726 34.6587 38.5568 34.4903Z" fill="#544545"/>
<path d="M44.7848 28.4306C45.5423 28.4306 46.1314 29.0197 46.1314 29.7772C46.1314 30.198 45.8789 30.6188 45.6265 30.8713C46.3839 31.208 46.8889 31.8813 46.8889 32.8071C46.8889 33.9854 45.9631 34.9112 44.869 34.9112C43.7749 34.9112 42.7649 33.9854 42.7649 32.8912C42.7649 32.0496 43.2699 31.2921 44.0273 30.9555C43.6907 30.703 43.5224 30.3663 43.5224 29.8613C43.5224 29.0197 44.1115 28.4306 44.7848 28.4306ZM44.869 34.4062C45.7948 34.4062 46.4681 33.6487 46.4681 32.8071C46.4681 31.8813 45.7106 31.208 44.869 31.208C43.9432 31.208 43.2699 31.9654 43.2699 32.8071C43.1857 33.6487 43.9432 34.4062 44.869 34.4062ZM44.7848 30.6188C45.2898 30.6188 45.7106 30.198 45.7106 29.693C45.7106 29.188 45.2898 28.8514 44.7848 28.8514C44.2798 28.8514 43.9432 29.2722 43.9432 29.7772C43.9432 30.2822 44.364 30.6188 44.7848 30.6188Z" fill="#544545"/>
<path d="M56.1469 28.4306C57.2411 28.4306 58.0827 29.2722 58.251 30.2822C58.251 30.2822 58.251 30.2822 58.251 30.3663C58.251 30.5347 58.251 30.703 58.251 30.8713C58.251 31.7129 58.0827 32.6387 57.6619 33.3962C57.2411 34.1537 56.4836 34.7428 55.4736 34.7428C55.3053 34.7428 55.2211 34.6587 55.2211 34.5745C55.2211 34.4062 55.3053 34.322 55.4736 34.322C56.3153 34.322 56.9044 33.817 57.3252 33.1437C57.5777 32.7229 57.6619 32.3021 57.7461 31.8813C57.3252 32.3021 56.8202 32.5546 56.1469 32.5546C54.9686 32.5546 54.0428 31.6288 54.0428 30.4505C54.0428 29.3564 54.9686 28.4306 56.1469 28.4306ZM57.8302 30.5347C57.8302 29.6089 57.0727 28.8514 56.1469 28.9356C55.2211 28.9356 54.4637 29.693 54.4637 30.6188C54.4637 31.5446 55.2211 32.3021 56.1469 32.3021C57.0727 32.1338 57.8302 31.4605 57.8302 30.5347Z" fill="#544545"/>
<path d="M59.8501 31.5446C59.8501 30.703 60.1026 29.9455 60.4392 29.3564C60.8601 28.7672 61.365 28.4306 62.0383 28.4306C62.7117 28.4306 63.2166 28.8514 63.6375 29.3564C64.0583 29.9455 64.2266 30.703 64.2266 31.5446C64.2266 32.3863 63.9741 33.1437 63.6375 33.7329C63.2166 34.322 62.7117 34.6587 62.0383 34.6587C61.365 34.6587 60.8601 34.2379 60.4392 33.7329C60.1026 33.2279 59.8501 32.4704 59.8501 31.5446ZM60.2709 31.5446C60.2709 32.3021 60.5234 33.0596 60.7759 33.4804C61.1125 33.9854 61.5334 34.2379 61.9542 34.2379C62.375 34.2379 62.7958 33.9854 63.1325 33.4804C63.4691 32.9754 63.6375 32.3021 63.6375 31.5446C63.6375 30.7871 63.385 30.0297 63.0483 29.6089C62.7117 29.1039 62.2908 28.8514 61.87 28.8514C61.4492 28.8514 60.9442 29.1039 60.6917 29.6089C60.5234 30.1138 60.2709 30.7871 60.2709 31.5446Z" fill="#544545"/>
<path d="M67.1724 29.0201L66.2466 29.5251H66.1624C66.0783 29.5251 65.9941 29.4409 65.9941 29.4409C65.9099 29.3568 65.9941 29.1884 66.0783 29.1043L67.3407 28.3468C67.4249 28.2626 67.5932 28.3468 67.6774 28.431C67.6774 28.5151 67.6774 28.5151 67.6774 28.5993V34.4066C67.6774 34.4908 67.5932 34.6591 67.4249 34.6591C67.3407 34.6591 67.1724 34.5749 67.1724 34.4066V29.0201Z" fill="#544545"/>
<path d="M69.1924 34.322L72.1381 31.6288C72.4747 31.2921 72.6431 30.8713 72.6431 30.4505C72.6431 30.0297 72.4748 29.693 72.2223 29.3564C71.8856 29.0197 71.4648 28.8514 71.044 28.8514C70.6231 28.8514 70.2865 29.0197 69.9498 29.2722L69.6132 29.5247C69.529 29.6089 69.3607 29.6089 69.2765 29.5247C69.1924 29.4405 69.1924 29.2722 69.2765 29.188L69.6132 28.9356C70.034 28.5989 70.539 28.4306 71.044 28.4306C71.6331 28.4306 72.1381 28.6831 72.5589 29.1039C72.8956 29.5247 73.1481 30.0297 73.1481 30.5347C73.1481 31.1238 72.8956 31.6288 72.4748 32.0496L69.9498 34.322H72.9797C73.0639 34.322 73.2322 34.4062 73.2322 34.5745C73.2322 34.6587 73.1481 34.827 72.9797 34.827H69.4449C69.3607 34.827 69.2765 34.827 69.2765 34.7428C69.1082 34.5745 69.1082 34.4062 69.1924 34.322Z" fill="#544545"/>
<path d="M83.8367 28.7676L82.2376 30.4509C82.6584 30.535 82.9951 30.7034 83.3317 31.04C83.7525 31.4608 83.9209 32.05 83.9209 32.5549C83.9209 33.1441 83.7525 33.6491 83.2475 34.0699C82.8267 34.4907 82.2376 34.7432 81.7326 34.7432C81.2276 34.7432 80.6385 34.5749 80.2177 34.0699C80.1335 33.9857 80.1335 33.8174 80.2177 33.7332C80.3018 33.6491 80.4701 33.6491 80.5543 33.7332C80.891 34.0699 81.3118 34.2382 81.7326 34.2382C82.1534 34.2382 82.5742 34.0699 82.9109 33.7332C83.2476 33.3966 83.4159 32.9758 83.4159 32.5549C83.4159 32.1341 83.2476 31.7133 82.9109 31.3767C82.5742 31.04 82.1534 30.8717 81.7326 30.8717C81.6484 30.8717 81.5643 30.8717 81.5643 30.7875C81.4801 30.7034 81.4801 30.535 81.5643 30.4509L83.1634 28.8518H80.7226C80.5543 28.8518 80.4702 28.7676 80.4702 28.5993C80.4702 28.4309 80.5543 28.3468 80.7226 28.3468H83.6684C83.8367 28.3468 83.9209 28.4309 83.9209 28.5993C83.9209 28.5993 83.9209 28.5993 83.8367 28.7676C83.9209 28.6834 83.8367 28.6834 83.8367 28.7676Z" fill="#544545"/>
<path d="M89.2233 33.3966H85.7726C85.6884 33.3966 85.6884 33.3966 85.6043 33.3124C85.5201 33.2283 85.5201 33.0599 85.6043 32.9758L89.3075 28.3468C89.3916 28.2626 89.4758 28.2626 89.6441 28.3468L89.7283 28.4309V32.8074H90.1491C90.3174 32.8074 90.4016 32.8916 90.4016 33.0599C90.4016 33.1441 90.3174 33.3124 90.1491 33.3124H89.7283V34.4066C89.7283 34.4907 89.6441 34.659 89.4758 34.659C89.3916 34.659 89.2233 34.5749 89.2233 34.4066V33.3966ZM89.2233 32.9758V29.2726L86.1934 32.9758H89.2233Z" fill="#544545"/>
<path d="M91.7481 34.0699C91.6639 33.9857 91.6639 33.8174 91.7481 33.7332C91.8323 33.6491 92.0006 33.6491 92.0848 33.7332C92.4214 34.0699 92.8422 34.2382 93.2631 34.2382C93.6839 34.2382 94.1047 34.0699 94.4413 33.7332C94.778 33.3966 94.9463 32.9758 94.9463 32.5549C94.9463 32.1341 94.778 31.7133 94.4413 31.3767C94.1047 31.04 93.6839 30.8717 93.2631 30.8717C92.8422 30.8717 92.4214 31.04 92.0848 31.3767C92.0006 31.4608 91.8323 31.4608 91.7481 31.3767L91.6639 31.2925V31.2083C91.6639 31.2083 91.6639 31.2083 91.6639 31.1242L92.0006 28.5993C92.0006 28.5151 92.0006 28.4309 92.0848 28.4309C92.0848 28.4309 92.1689 28.3468 92.2531 28.3468H95.1988C95.3672 28.3468 95.4513 28.4309 95.4513 28.5993C95.4513 28.7676 95.3672 28.8518 95.1988 28.8518H92.4214L92.1689 30.7033C92.5056 30.535 92.8422 30.4509 93.2631 30.4509C93.8522 30.4509 94.3572 30.6192 94.778 31.04C95.1988 31.4608 95.3671 31.9658 95.3671 32.5549C95.3671 33.0599 95.1988 33.6491 94.778 34.0699C94.3572 34.4907 93.768 34.659 93.2631 34.659C92.6739 34.659 92.1689 34.4907 91.7481 34.0699Z" fill="#544545"/>
<path d="M97.7238 29.6934C98.1446 28.9359 98.9021 28.3468 99.912 28.3468C99.9962 28.3468 100.165 28.4309 100.165 28.5151C100.165 28.6834 100.08 28.7676 99.912 28.7676C98.9862 28.7676 98.4813 29.2726 98.0604 29.9459C97.808 30.2825 97.7238 30.7875 97.6396 31.2083C98.0604 30.7875 98.5654 30.4509 99.2387 30.4509C100.417 30.4509 101.343 31.3767 101.343 32.5549C101.343 33.7332 100.417 34.659 99.2387 34.659C98.1446 34.659 97.1346 33.7332 97.1346 32.6391C97.1346 32.4708 97.1346 32.3866 97.1346 32.2183C97.1346 31.3767 97.303 30.4509 97.7238 29.6934ZM97.6396 32.6391C97.6396 32.7233 97.6396 32.7233 97.6396 32.7233V32.8074C97.7238 33.6491 98.4813 34.2382 99.3229 34.2382C100.249 34.2382 101.006 33.4807 101.006 32.5549C101.006 31.6291 100.249 30.8717 99.3229 30.8717C98.3971 30.8717 97.6396 31.6292 97.6396 32.6391Z" fill="#544545"/>
<path d="M58.332 45.6977L2.86816 45.8417L2.87516 48.535L58.339 48.391L58.332 45.6977Z" fill="#7A9EAE"/>
<path d="M42.1726 51.7781L2.86816 51.8801L2.87515 54.5733L42.1796 54.4713L42.1726 51.7781Z" fill="#7A9EAE"/>
<path d="M78.3631 0.0323717L50.6732 0.104233L50.6802 2.79747L78.3701 2.72561L78.3631 0.0323717Z" fill="#7A9EAE"/>
</svg>
