<svg width="135" height="241" viewBox="0 0 135 241" fill="none" xmlns="http://www.w3.org/2000/svg">
<path d="M122.059 155.391C120.712 157.916 117.43 160.104 117.43 160.104C117.43 160.104 114.148 157.916 112.801 155.391C111.286 152.614 112.128 149.668 114.316 149.668C116.757 149.668 117.43 152.698 117.43 152.698C117.43 152.698 118.103 149.668 120.544 149.668C122.732 149.668 123.574 152.53 122.059 155.391Z" fill="#4B8CA9"/>
<path d="M25.1025 3.81273H12.4779V5.91682H25.1025V3.81273Z" fill="#DBDBDB"/>
<path d="M25.1025 7.93704H12.4779V10.0411H25.1025V7.93704Z" fill="#DBDBDB"/>
<path d="M25.1025 12.1454H12.4779V14.2495H25.1025V12.1454Z" fill="#DBDBDB"/>
<path d="M86.0957 7.53462L84.6869 8.60197L88.9563 14.2373L90.3651 13.1699L86.0957 7.53462Z" fill="#DBDBDB"/>
<path d="M86.8763 10.4589C88.536 9.18611 88.8497 6.80879 87.5769 5.14903C86.3041 3.48926 83.9268 3.17556 82.2671 4.44836C80.6073 5.72117 80.2936 8.09848 81.5664 9.75825C82.8392 11.418 85.2165 11.7317 86.8763 10.4589Z" fill="#DBDBDB"/>
<path d="M85.9541 9.25569C86.95 8.49201 87.1382 7.06561 86.3745 6.06975C85.6108 5.07389 84.1844 4.88568 83.1886 5.64936C82.1927 6.41304 82.0045 7.83942 82.7682 8.83528C83.5319 9.83114 84.9583 10.0194 85.9541 9.25569Z" fill="white"/>
<path d="M106.741 9.53585C105.394 12.0608 102.112 14.249 102.112 14.249C102.112 14.249 98.8297 12.0608 97.4831 9.53585C95.9681 6.75845 96.8098 3.81273 98.998 3.81273C101.439 3.81273 102.112 6.84262 102.112 6.84262C102.112 6.84262 102.785 3.81273 105.226 3.81273C107.414 3.81273 108.256 6.67429 106.741 9.53585Z" fill="#DBDBDB"/>
<path d="M121.386 12.1453H113.727L111.791 4.40223H111.033V3.72893H112.296L112.717 5.24387H123.237L121.386 12.1453ZM114.232 11.472H120.881L122.396 5.91718H112.885L114.232 11.472Z" fill="#DBDBDB"/>
<path d="M120.123 13.3236L119.618 12.1454H115.242L114.821 13.3236L114.232 13.1553L114.821 11.472H120.039L120.712 13.0712L120.123 13.3236Z" fill="#DBDBDB"/>
<path d="M122.311 6.75867H112.801V7.43197H122.311V6.75867Z" fill="#DBDBDB"/>
<path d="M113.315 8.33592L113.312 9.00925L121.897 9.04745L121.9 8.37412L113.315 8.33592Z" fill="#DBDBDB"/>
<path d="M121.554 10.0409H113.727V10.7142H121.554V10.0409Z" fill="#DBDBDB"/>
<path d="M117.851 5.66438H117.177V11.8083H117.851V5.66438Z" fill="#DBDBDB"/>
<path d="M118.807 5.66119L118.32 11.7855L118.991 11.8389L119.478 5.71459L118.807 5.66119Z" fill="#DBDBDB"/>
<path d="M120.662 5.59154L119.536 11.7169L120.198 11.8386L121.324 5.71327L120.662 5.59154Z" fill="#DBDBDB"/>
<path d="M116.174 5.64706L115.503 5.70085L115.994 11.8251L116.665 11.7713L116.174 5.64706Z" fill="#DBDBDB"/>
<path d="M114.332 5.56109L113.67 5.68289L114.797 11.8082L115.459 11.6864L114.332 5.56109Z" fill="#DBDBDB"/>
<path d="M120.46 14.2494C119.871 14.2494 119.45 13.7444 119.45 13.2395C119.45 12.6503 119.955 12.2295 120.46 12.2295C121.049 12.2295 121.47 12.7345 121.47 13.2395C121.47 13.8286 120.965 14.2494 120.46 14.2494ZM120.46 12.8186C120.207 12.8186 120.039 12.987 120.039 13.2395C120.039 13.4919 120.207 13.6603 120.46 13.6603C120.712 13.6603 120.881 13.4919 120.881 13.2395C120.796 12.987 120.628 12.8186 120.46 12.8186Z" fill="#DBDBDB"/>
<path d="M114.568 14.2494C113.979 14.2494 113.558 13.7444 113.558 13.2395C113.558 12.6503 114.063 12.2295 114.568 12.2295C115.157 12.2295 115.578 12.7345 115.578 13.2395C115.578 13.8286 115.157 14.2494 114.568 14.2494ZM114.568 12.8186C114.316 12.8186 114.147 12.987 114.147 13.2395C114.147 13.4919 114.316 13.6603 114.568 13.6603C114.821 13.6603 114.989 13.4919 114.989 13.2395C114.989 12.987 114.737 12.8186 114.568 12.8186Z" fill="#DBDBDB"/>
<path d="M122.816 6.33773C124.35 6.33773 125.594 5.09424 125.594 3.56032C125.594 2.02641 124.35 0.782928 122.816 0.782928C121.283 0.782928 120.039 2.02641 120.039 3.56032C120.039 5.09424 121.283 6.33773 122.816 6.33773Z" fill="#4B8CA9"/>
<path d="M123.237 1.96142V5.07548C123.237 5.24381 123.069 5.32797 122.985 5.32797C122.816 5.32797 122.732 5.24381 122.732 5.07548V2.46641L122.564 2.55057C122.48 2.55057 122.48 2.55057 122.396 2.55057C122.311 2.55057 122.227 2.4664 122.143 2.38224C122.059 2.21391 122.059 2.04559 122.227 1.96142L122.901 1.5406C123.153 1.87726 123.153 1.87726 123.237 1.96142C123.153 1.96142 123.153 1.96142 123.237 1.96142C123.153 1.96142 123.153 1.96142 123.237 1.96142Z" fill="white"/>
<path d="M81.8287 151.688H12.4779V153.624H81.8287V151.688Z" fill="#DBDBDB"/>
<path d="M72.1499 155.392H12.4779V157.327H72.1499V155.392Z" fill="#DBDBDB"/>
<path d="M5.49223 92.3523L2.71484 89.7432L5.49223 87.1341L5.91305 87.6391L3.64064 89.7432L5.91305 91.9314L5.49223 92.3523Z" fill="white"/>
<path d="M4.98728 94.4565C2.46237 94.4565 0.358276 92.3524 0.358276 89.8275C0.358276 87.3026 2.46237 85.1985 4.98728 85.1985C7.51219 85.1985 9.61628 87.3026 9.61628 89.8275C9.61628 92.3524 7.51219 94.4565 4.98728 94.4565ZM4.98728 85.956C2.88319 85.956 1.19991 87.6393 1.19991 89.7434C1.19991 91.8475 2.88319 93.5307 4.98728 93.5307C7.09137 93.5307 8.77464 91.8475 8.77464 89.7434C8.77464 87.7234 7.0072 85.956 4.98728 85.956Z" fill="white"/>
<path d="M129.802 92.3523L129.381 91.9315L131.654 89.7432L129.381 87.6391L129.802 87.1341L132.579 89.7432L129.802 92.3523Z" fill="white"/>
<path d="M130.307 94.4566C127.782 94.4566 125.678 92.3525 125.678 89.8276C125.678 87.3027 127.782 85.1986 130.307 85.1986C132.832 85.1986 134.936 87.3027 134.936 89.8276C135.02 92.3525 132.916 94.4566 130.307 94.4566ZM130.307 85.956C128.203 85.956 126.519 87.6393 126.519 89.7434C126.519 91.8475 128.203 93.5308 130.307 93.5308C132.411 93.5308 134.094 91.8475 134.094 89.7434C134.178 87.7235 132.411 85.956 130.307 85.956Z" fill="white"/>
<path d="M16.8543 202.018C17.0226 202.018 17.1068 202.102 17.1068 202.271V202.691C17.8643 202.776 18.3693 203.028 18.9584 203.449C19.0426 203.533 19.1267 203.617 19.1267 203.701C19.1267 203.87 19.0426 203.954 18.8742 203.954C18.7901 203.954 18.7901 203.954 18.7059 203.87C18.2009 203.449 17.6959 203.281 17.1068 203.196V206.142C18.7059 206.479 19.3792 207.068 19.3792 208.078C19.3792 209.172 18.4534 209.93 17.1068 210.014V210.855C17.1068 211.024 17.0226 211.108 16.8543 211.108C16.686 211.108 16.6018 211.024 16.6018 210.855V210.014C15.676 209.93 14.9185 209.593 14.2452 209.004C14.1611 208.92 14.1611 208.92 14.1611 208.751C14.1611 208.583 14.2452 208.499 14.4136 208.499C14.4977 208.499 14.5819 208.499 14.5819 208.583C15.171 209.088 15.8444 209.425 16.6018 209.509V206.563C15.0027 206.226 14.4136 205.637 14.4136 204.627C14.4136 203.533 15.3394 202.776 16.6018 202.776V202.355C16.6018 202.102 16.686 202.018 16.8543 202.018ZM16.6018 205.974V203.112C15.5919 203.112 14.9186 203.701 14.9186 204.459C14.9186 205.216 15.2552 205.637 16.6018 205.974ZM17.1068 206.563V209.425C18.1168 209.425 18.7901 208.835 18.7901 207.994C18.7901 207.32 18.4534 206.9 17.1068 206.563Z" fill="black"/>
<path d="M20.6417 209.508L24.0924 206.394C24.5133 206.058 24.6816 205.553 24.6816 204.964C24.6816 204.543 24.5133 204.038 24.1766 203.701C23.84 203.28 23.335 203.112 22.7458 203.112C22.325 203.112 21.82 203.28 21.4834 203.617L21.1467 203.954C21.0626 204.038 20.8942 204.038 20.8101 203.954C20.7259 203.869 20.7259 203.701 20.8101 203.617L21.1467 203.28C21.5675 202.859 22.1567 202.691 22.7458 202.691C23.4191 202.691 24.0083 202.944 24.5133 203.449C24.9341 203.869 25.1024 204.459 25.1024 205.048C25.1024 205.721 24.8499 206.31 24.3449 206.815L21.3992 209.424H24.8499C25.0182 209.424 25.1024 209.508 25.1024 209.677C25.1024 209.845 25.0182 209.929 24.8499 209.929H20.8101C20.7259 209.929 20.6417 209.929 20.6417 209.845C20.5576 209.761 20.5576 209.593 20.6417 209.508Z" fill="black"/>
<path d="M26.954 206.31C26.954 205.3 27.2065 204.459 27.6273 203.785C28.0481 203.112 28.7214 202.691 29.4789 202.691C30.2364 202.691 30.8255 203.112 31.3305 203.785C31.7513 204.459 32.0038 205.384 32.0038 206.31C32.0038 207.32 31.7513 208.162 31.3305 208.835C30.9097 209.508 30.2364 209.929 29.4789 209.929C28.7214 209.929 28.1323 209.508 27.6273 208.835C27.2065 208.162 26.954 207.236 26.954 206.31ZM27.459 206.31C27.459 207.236 27.7115 207.993 28.0481 208.583C28.3848 209.172 28.8897 209.424 29.4789 209.424C29.9839 209.424 30.4889 209.088 30.9097 208.583C31.2463 207.993 31.4988 207.236 31.4988 206.31C31.4988 205.384 31.2463 204.627 30.9097 204.038C30.4889 203.449 30.068 203.196 29.4789 203.196C28.9739 203.196 28.4689 203.533 28.0481 204.038C27.7115 204.543 27.459 205.384 27.459 206.31Z" fill="black"/>
<path d="M34.8654 208.919C35.1179 208.919 35.3704 209.172 35.3704 209.424C35.3704 209.677 35.1179 209.929 34.8654 209.929C34.6129 209.929 34.3604 209.677 34.3604 209.424C34.3604 209.088 34.5287 208.919 34.8654 208.919Z" fill="black"/>
<path d="M36.3804 206.31C36.3804 205.3 36.6329 204.459 37.0537 203.785C37.4745 203.112 38.1479 202.691 38.9053 202.691C39.6628 202.691 40.2519 203.112 40.7569 203.785C41.1777 204.459 41.4303 205.384 41.4303 206.31C41.4303 207.32 41.1777 208.162 40.7569 208.835C40.3361 209.508 39.6628 209.929 38.9053 209.929C38.1479 209.929 37.5587 209.508 37.0537 208.835C36.6329 208.162 36.3804 207.236 36.3804 206.31ZM36.8854 206.31C36.8854 207.236 37.1379 207.993 37.4745 208.583C37.8112 209.172 38.3162 209.424 38.9053 209.424C39.4103 209.424 39.9153 209.088 40.3361 208.583C40.6728 207.993 40.9253 207.236 40.9253 206.31C40.9253 205.384 40.6728 204.627 40.3361 204.038C39.9153 203.449 39.4945 203.196 38.9053 203.196C38.4004 203.196 37.8954 203.533 37.4745 204.038C37.1379 204.543 36.8854 205.384 36.8854 206.31Z" fill="black"/>
<path d="M43.7868 206.31C43.7868 205.3 44.0393 204.459 44.4601 203.785C44.8809 203.112 45.5542 202.691 46.3117 202.691C47.0692 202.691 47.6583 203.112 48.1633 203.785C48.5841 204.459 48.8366 205.384 48.8366 206.31C48.8366 207.32 48.5841 208.162 48.1633 208.835C47.7425 209.508 47.0692 209.929 46.3117 209.929C45.5542 209.929 44.9651 209.508 44.4601 208.835C44.0393 208.162 43.7868 207.236 43.7868 206.31ZM44.2918 206.31C44.2918 207.236 44.5443 207.993 44.8809 208.583C45.2176 209.172 45.7226 209.424 46.3117 209.424C46.8167 209.424 47.3217 209.088 47.7425 208.583C48.0792 207.993 48.3316 207.236 48.3316 206.31C48.3316 205.384 48.0792 204.627 47.7425 204.038C47.3217 203.449 46.9009 203.196 46.3117 203.196C45.8067 203.196 45.3018 203.533 44.8809 204.038C44.5443 204.543 44.2918 205.384 44.2918 206.31Z" fill="black"/>
<path d="M16.9384 26.5368L15.3393 28.7251C15.3393 28.8092 15.2551 28.8092 15.171 28.8092C15.0868 28.8092 15.0868 28.8092 15.0027 28.7251L13.4036 26.5368V30.5767C13.4036 30.6608 13.3194 30.745 13.2352 30.745C13.1511 30.745 13.0669 30.6608 13.0669 30.5767V26.0318C13.0669 25.9477 13.0669 25.9477 13.1511 25.8635C13.2352 25.7793 13.3194 25.8635 13.4036 25.8635L15.171 28.3042L16.9384 25.8635C17.0226 25.7793 17.1068 25.7793 17.1909 25.8635C17.1909 25.8635 17.1909 25.8635 17.2751 25.9477V26.0318V30.5767C17.2751 30.6608 17.1909 30.745 17.1068 30.745C17.0226 30.745 16.9384 30.6608 16.9384 30.5767V26.5368Z" fill="black"/>
<path d="M20.4734 27.2946C21.3992 27.2946 22.0725 28.052 22.0725 28.9778C22.0725 29.9036 21.315 30.6611 20.4734 30.6611C19.5476 30.6611 18.8743 29.9036 18.8743 28.9778C18.8743 28.1362 19.5476 27.2946 20.4734 27.2946ZM20.4734 30.4086C21.1467 30.4086 21.7358 29.8195 21.7358 29.062C21.7358 28.3045 21.1467 27.7154 20.4734 27.7154C19.8001 27.7154 19.2109 28.3045 19.2109 29.062C19.2109 29.8195 19.8001 30.4086 20.4734 30.4086Z" fill="black"/>
<path d="M26.1123 30.0718C25.7757 30.4926 25.3549 30.7451 24.7657 30.7451C23.8399 30.7451 23.0825 29.9877 23.0825 29.0619C23.0825 28.1361 23.8399 27.3786 24.7657 27.3786C25.2707 27.3786 25.7757 27.6311 26.1123 28.0519V26.1161C26.1123 26.032 26.1965 25.9478 26.2807 25.9478C26.3648 25.9478 26.449 26.032 26.449 26.1161V29.0619V29.146V30.661C26.449 30.7451 26.3648 30.8293 26.2807 30.8293C26.1965 30.8293 26.1123 30.7451 26.1123 30.661V30.0718ZM26.1123 29.0619V28.9777C26.1123 28.2202 25.5232 27.6311 24.7657 27.6311C24.0083 27.6311 23.4191 28.2202 23.4191 28.9777C23.4191 29.7352 24.0083 30.3243 24.7657 30.3243C25.5232 30.4085 26.0282 29.8193 26.1123 29.0619Z" fill="black"/>
<path d="M27.6273 29.0616C27.6273 28.1358 28.3847 27.3784 29.3105 27.3784C30.1522 27.3784 30.9096 28.0517 30.9938 28.9775C30.9938 29.0616 30.9096 29.1458 30.8255 29.1458H28.0481C28.0481 29.9033 28.6372 30.4924 29.3947 30.4924C29.8155 30.4924 30.2363 30.2399 30.4888 29.9033C30.573 29.8191 30.6571 29.8191 30.7413 29.8191C30.8255 29.9033 30.8255 29.9874 30.8255 30.0716C30.573 30.5766 29.9838 30.8291 29.4788 30.8291C28.3847 30.7449 27.6273 29.9874 27.6273 29.0616ZM27.9639 28.725H30.573C30.4888 28.0517 29.8997 27.6309 29.3105 27.6309C28.6372 27.6309 28.0481 28.1358 27.9639 28.725Z" fill="black"/>
<path d="M31.9196 27.4629C31.9196 27.3787 32.0038 27.2946 32.088 27.2946C32.1721 27.2946 32.2563 27.3787 32.2563 27.4629V28.2203C32.2563 28.2203 32.2563 28.1362 32.3404 28.1362C32.5929 27.7154 33.0137 27.2946 33.6871 27.2946C33.7712 27.2946 33.8554 27.3787 33.8554 27.4629C33.8554 27.547 33.7712 27.6312 33.6871 27.6312C33.2662 27.6312 32.9296 27.8837 32.6771 28.2203C32.4246 28.557 32.3405 28.8937 32.2563 28.9778C32.2563 28.9778 32.2563 28.9778 32.2563 29.062V30.5769C32.2563 30.6611 32.1721 30.7453 32.088 30.7453C32.0038 30.7453 31.9196 30.6611 31.9196 30.5769V27.4629Z" fill="black"/>
<path d="M37.4744 28.7253C37.4744 28.1362 36.9694 27.6312 36.3803 27.6312C35.7911 27.6312 35.3703 28.1362 35.2861 28.7253V30.5769V30.6611L35.202 30.7453C35.1178 30.7453 35.1178 30.6611 35.1178 30.6611V28.8095V28.7253V27.4629C35.1178 27.3787 35.2019 27.2946 35.2861 27.2946C35.3703 27.2946 35.4544 27.3787 35.4544 27.4629V27.7995C35.7069 27.4629 36.1277 27.2946 36.5486 27.2946C37.306 27.2946 37.8952 27.8837 37.8952 28.6412V30.4928C37.8952 30.5769 37.811 30.6611 37.7269 30.6611C37.6427 30.6611 37.5585 30.5769 37.5585 30.4928V28.7253H37.4744Z" fill="black"/>
<path d="M44.2917 28.4731H41.7668V30.5772C41.7668 30.6613 41.6827 30.7455 41.5985 30.7455C41.5143 30.7455 41.4302 30.6613 41.4302 30.5772V26.0323C41.4302 25.9482 41.5143 25.864 41.5985 25.864C41.6827 25.864 41.7668 25.9482 41.7668 26.0323V28.1364H44.2917V26.0323C44.2917 25.9482 44.3759 25.864 44.4601 25.864C44.5442 25.864 44.6284 25.9482 44.6284 26.0323V30.5772C44.6284 30.6613 44.5442 30.7455 44.4601 30.7455C44.3759 30.7455 44.2917 30.6613 44.2917 30.5772V28.4731Z" fill="black"/>
<path d="M49.1731 27.4629V30.5769C49.1731 30.6611 49.0889 30.7453 49.0047 30.7453C48.9206 30.7453 48.8364 30.6611 48.8364 30.5769V30.072C48.5839 30.4928 48.0789 30.7453 47.574 30.7453C46.6482 30.7453 45.9749 29.9878 45.9749 29.062C45.9749 28.1362 46.7323 27.3787 47.574 27.3787C48.0789 27.3787 48.5839 27.6312 48.8364 28.052V27.4629C48.8364 27.3787 48.9206 27.2946 49.0047 27.2946C49.0889 27.2946 49.1731 27.3787 49.1731 27.4629ZM48.8364 29.062C48.8364 28.3045 48.2473 27.7154 47.574 27.7154C46.9006 27.7154 46.3115 28.3045 46.3115 29.062C46.3115 29.8195 46.9006 30.4086 47.574 30.4086C48.2473 30.4086 48.8364 29.8195 48.8364 29.062Z" fill="black"/>
<path d="M52.9605 28.7253C52.9605 28.1362 52.4555 27.6312 51.8663 27.6312C51.2772 27.6312 50.8564 28.1362 50.7722 28.7253V30.5769V30.6611L50.6881 30.7453C50.6039 30.7453 50.6039 30.6611 50.6039 30.6611V28.8095V28.7253V27.4629C50.6039 27.3787 50.6881 27.2946 50.7722 27.2946C50.8564 27.2946 50.9405 27.3787 50.9405 27.4629V27.7995C51.193 27.4629 51.6139 27.2946 52.0347 27.2946C52.7921 27.2946 53.3813 27.8837 53.3813 28.6412V30.4928C53.3813 30.5769 53.2971 30.6611 53.213 30.6611C53.1288 30.6611 53.0446 30.5769 53.0446 30.4928V28.7253H52.9605Z" fill="black"/>
<path d="M57.4212 30.0718C57.0845 30.4926 56.6637 30.7451 56.0746 30.7451C55.1488 30.7451 54.3913 29.9877 54.3913 29.0619C54.3913 28.1361 55.1488 27.3786 56.0746 27.3786C56.5796 27.3786 57.0845 27.6311 57.4212 28.0519V26.1161C57.4212 26.032 57.5053 25.9478 57.5895 25.9478C57.6737 25.9478 57.7578 26.032 57.7578 26.1161V29.0619V29.146V30.661C57.7578 30.7451 57.6737 30.8293 57.5895 30.8293C57.5053 30.8293 57.4212 30.7451 57.4212 30.661V30.0718ZM57.4212 29.0619V28.9777C57.4212 28.2202 56.832 27.6311 56.0746 27.6311C55.3171 27.6311 54.7279 28.2202 54.7279 28.9777C54.7279 29.7352 55.3171 30.3243 56.0746 30.3243C56.832 30.4085 57.4212 29.8193 57.4212 29.0619Z" fill="black"/>
<path d="M59.2728 29.062V28.8937V25.948C59.2728 25.8638 59.357 25.7797 59.4412 25.7797C59.5253 25.7797 59.6095 25.8638 59.6095 25.948V27.8838C59.9462 27.4629 60.367 27.2104 60.9561 27.2104C61.8819 27.2104 62.6394 27.9679 62.6394 28.8937C62.6394 29.8195 61.8819 30.577 60.9561 30.577C60.4511 30.577 59.9462 30.3245 59.6095 29.9037V30.4087C59.6095 30.4928 59.5253 30.577 59.4412 30.577C59.357 30.577 59.2728 30.4928 59.2728 30.4087V29.062ZM59.6095 29.062C59.6095 29.8195 60.1986 30.4087 60.9561 30.4087C61.7136 30.4087 62.3027 29.8195 62.3027 29.062C62.3027 28.3046 61.7136 27.7154 60.9561 27.7154C60.1986 27.6313 59.6937 28.2204 59.6095 29.062Z" fill="black"/>
<path d="M66.7634 27.4629V30.5769C66.7634 30.6611 66.6792 30.7453 66.595 30.7453C66.5109 30.7453 66.4267 30.6611 66.4267 30.5769V30.072C66.1742 30.4928 65.6692 30.7453 65.1642 30.7453C64.2384 30.7453 63.5651 29.9878 63.5651 29.062C63.5651 28.1362 64.3226 27.3787 65.1642 27.3787C65.6692 27.3787 66.1742 27.6312 66.4267 28.052V27.4629C66.4267 27.3787 66.5109 27.2946 66.595 27.2946C66.6792 27.2946 66.7634 27.3787 66.7634 27.4629ZM66.4267 29.062C66.4267 28.3045 65.8375 27.7154 65.1642 27.7154C64.4909 27.7154 63.9018 28.3045 63.9018 29.062C63.9018 29.8195 64.4909 30.4086 65.1642 30.4086C65.8375 30.4086 66.4267 29.8195 66.4267 29.062Z" fill="black"/>
<path d="M71.3923 30.4928C71.3923 31.4186 70.6348 32.0919 69.7932 32.0919C69.5407 32.0919 69.2882 32.0077 69.1199 31.9236C69.0357 31.8394 69.0357 31.7552 69.0357 31.6711C69.0357 31.5869 69.2041 31.5869 69.2882 31.5869C69.4566 31.6711 69.6249 31.6711 69.8774 31.6711C70.5507 31.6711 71.1398 31.0819 71.1398 30.4086V29.9878C70.8873 30.4086 70.3823 30.6611 69.8774 30.6611C68.9516 30.6611 68.2783 29.9036 68.2783 28.9778C68.2783 28.052 68.9516 27.2946 69.8774 27.2946C70.3823 27.2946 70.8873 27.547 71.1398 27.9679V27.4629C71.1398 27.3787 71.224 27.2946 71.3082 27.2946C71.3923 27.2946 71.4765 27.3787 71.4765 27.4629V30.4928H71.3923ZM71.0556 28.9778C71.0556 28.2204 70.4665 27.6312 69.7932 27.6312C69.1199 27.6312 68.5307 28.2204 68.5307 28.9778C68.5307 29.7353 69.1199 30.3244 69.7932 30.3244C70.5507 30.4086 71.0556 29.7353 71.0556 28.9778Z" fill="black"/>
<path d="M15.5078 163.134C16.0969 163.134 16.686 163.302 17.1069 163.639C17.191 163.723 17.191 163.807 17.1069 163.892C17.0227 163.976 16.9385 163.976 16.8544 163.892C16.5177 163.639 16.0127 163.387 15.5078 163.387C14.2453 163.387 13.3195 164.312 13.3195 165.575C13.3195 166.753 14.3295 167.679 15.5078 167.679C16.0127 167.679 16.5177 167.511 16.8544 167.174C16.9385 167.09 17.0227 167.174 17.1069 167.174C17.191 167.258 17.191 167.342 17.1069 167.426C16.686 167.763 16.0969 167.931 15.5078 167.931C14.077 167.931 12.9828 166.837 12.9828 165.491C12.9828 164.228 14.077 163.134 15.5078 163.134Z" fill="black"/>
<path d="M19.8843 164.649C20.8101 164.649 21.4834 165.407 21.4834 166.332C21.4834 167.258 20.7259 168.016 19.8843 168.016C18.9585 168.016 18.2852 167.258 18.2852 166.332C18.2852 165.407 18.9585 164.649 19.8843 164.649ZM19.8843 167.763C20.5576 167.763 21.1467 167.174 21.1467 166.417C21.1467 165.659 20.5576 165.07 19.8843 165.07C19.211 165.07 18.6218 165.659 18.6218 166.417C18.6218 167.09 19.211 167.763 19.8843 167.763Z" fill="black"/>
<path d="M22.83 163.387C22.83 163.303 22.9142 163.219 22.9983 163.219C23.0825 163.219 23.1667 163.303 23.1667 163.387V167.932C23.1667 168.016 23.0825 168.1 22.9983 168.1C22.9142 168.1 22.83 168.016 22.83 167.932V163.387Z" fill="black"/>
<path d="M25.944 164.649C26.8698 164.649 27.5431 165.407 27.5431 166.332C27.5431 167.258 26.7857 168.016 25.944 168.016C25.0182 168.016 24.3449 167.258 24.3449 166.332C24.3449 165.407 25.1024 164.649 25.944 164.649ZM25.944 167.763C26.6173 167.763 27.2065 167.174 27.2065 166.417C27.2065 165.659 26.6173 165.07 25.944 165.07C25.2707 165.07 24.6816 165.659 24.6816 166.417C24.6816 167.09 25.2707 167.763 25.944 167.763Z" fill="black"/>
<path d="M28.7214 164.818C28.7214 164.733 28.8056 164.649 28.8898 164.649C28.9739 164.649 29.0581 164.733 29.0581 164.818V165.575C29.0581 165.575 29.0581 165.491 29.1423 165.491C29.3947 165.07 29.8156 164.649 30.4889 164.649C30.573 164.649 30.6572 164.733 30.6572 164.818C30.6572 164.902 30.573 164.986 30.4889 164.986C30.0681 164.986 29.7314 165.238 29.4789 165.575C29.2264 165.912 29.1422 166.248 29.0581 166.332C29.0581 166.332 29.0581 166.332 29.0581 166.417V167.932C29.0581 168.016 28.9739 168.1 28.8898 168.1C28.8056 168.1 28.7214 168.016 28.7214 167.932V164.818Z" fill="black"/>
<path d="M113.895 220.871H21.3151V240.397H113.895V220.871Z" fill="#4B8CA9"/>
<path d="M37.1378 232.99H34.6129L34.1079 234.337C34.0238 234.589 33.7713 234.673 33.6029 234.673C33.5188 234.673 33.4346 234.673 33.4346 234.673C33.098 234.589 33.0138 234.253 33.098 233.916L35.3704 227.772C35.4546 227.52 35.7071 227.435 35.9595 227.435C36.212 227.435 36.3803 227.604 36.5487 227.772L38.8211 233.916C38.9053 234.253 38.8211 234.589 38.4845 234.673C38.4003 234.673 38.4003 234.673 38.3161 234.673C38.0636 234.673 37.8953 234.505 37.8111 234.337L37.1378 232.99ZM36.717 231.812L35.8754 229.539L35.0337 231.812H36.717Z" fill="white"/>
<path d="M40.1677 234.084V227.94C40.1677 227.604 40.4202 227.351 40.7569 227.351H42.0193C44.0392 227.351 45.6384 229.034 45.6384 230.97C45.6384 232.99 44.0392 234.673 42.0193 234.673H40.7569C40.4202 234.673 40.1677 234.421 40.1677 234.084ZM41.346 233.495H42.0193C43.3659 233.495 44.5442 232.401 44.5442 230.97C44.5442 229.623 43.4501 228.445 42.0193 228.445H41.346V233.495Z" fill="white"/>
<path d="M47.4058 234.084V227.94C47.4058 227.604 47.6583 227.351 47.995 227.351H49.2574C51.2773 227.351 52.8765 229.034 52.8765 230.97C52.8765 232.99 51.2773 234.673 49.2574 234.673H47.995C47.6583 234.673 47.4058 234.421 47.4058 234.084ZM48.5841 233.495H49.2574C50.604 233.495 51.7823 232.401 51.7823 230.97C51.7823 229.623 50.6882 228.445 49.2574 228.445H48.5841V233.495Z" fill="white"/>
<path d="M62.5552 228.529H60.8719V234.084C60.8719 234.421 60.6194 234.673 60.2828 234.673C59.9461 234.673 59.6936 234.421 59.6936 234.084V228.529H58.0103C57.6737 228.529 57.4212 228.277 57.4212 227.94C57.4212 227.604 57.6737 227.351 58.0103 227.351H62.471C62.8077 227.351 63.0602 227.604 63.0602 227.94C63.0602 228.277 62.8077 228.529 62.5552 228.529Z" fill="white"/>
<path d="M70.0458 228.277C70.7191 228.95 71.1399 229.876 71.1399 230.886C71.1399 231.896 70.7191 232.822 70.0458 233.495C69.4567 234.168 68.5309 234.589 67.5209 234.589C66.5109 234.589 65.5851 234.168 64.996 233.495C64.3227 232.822 63.986 231.896 63.986 230.886C63.986 229.876 64.4069 228.95 64.996 228.277C65.6693 227.604 66.5951 227.183 67.5209 227.183C68.4467 227.183 69.3725 227.604 70.0458 228.277ZM69.8775 230.886C69.8775 230.213 69.625 229.539 69.2042 229.034C68.7834 228.53 68.1942 228.277 67.5209 228.277C66.8476 228.277 66.2585 228.53 65.8376 229.034C65.4168 229.455 65.1643 230.129 65.1643 230.886C65.1643 231.559 65.4168 232.233 65.8376 232.738C66.2585 233.243 66.8476 233.495 67.5209 233.495C68.1101 233.495 68.6992 233.243 69.2042 232.738C69.625 232.317 69.8775 231.644 69.8775 230.886Z" fill="white"/>
<path d="M75.9372 230.886C75.9372 228.782 77.7046 227.099 79.8087 227.099C80.7345 227.099 81.5762 227.436 82.2495 227.941C82.502 228.109 82.502 228.53 82.3336 228.782C82.1653 229.035 81.7445 229.119 81.492 228.866C81.0712 228.53 80.482 228.277 79.8087 228.277C79.0513 228.277 78.3779 228.53 77.9571 229.035C77.4521 229.54 77.1996 230.129 77.1996 230.886C77.1996 231.56 77.4521 232.233 77.9571 232.738C78.4621 233.159 79.1354 233.495 79.8087 233.495C80.482 233.495 80.987 233.327 81.492 232.906C81.7445 232.738 82.0811 232.738 82.3336 232.991C82.502 233.243 82.502 233.664 82.2495 233.832C81.5762 234.337 80.7345 234.674 79.8087 234.674C77.7046 234.674 75.9372 232.991 75.9372 230.886Z" fill="white"/>
<path d="M87.8886 232.99H85.3637L84.8587 234.337C84.7745 234.589 84.522 234.673 84.3537 234.673C84.2695 234.673 84.1854 234.673 84.1854 234.673C83.8487 234.589 83.7646 234.253 83.8487 233.916L86.1211 227.772C86.2053 227.52 86.4578 227.435 86.7103 227.435C86.9628 227.435 87.1311 227.604 87.2994 227.772L89.5718 233.916C89.656 234.253 89.5718 234.589 89.2352 234.673C89.151 234.673 89.151 234.673 89.0669 234.673C88.8144 234.673 88.646 234.505 88.5619 234.337L87.8886 232.99ZM87.4677 231.812L86.6261 229.539L85.7845 231.812H87.4677Z" fill="white"/>
<path d="M95.7999 233.832C95.884 234.168 95.7157 234.421 95.4632 234.589C95.4632 234.589 95.3791 234.589 95.2107 234.589C95.1266 234.589 94.9582 234.589 94.7899 234.505C94.6216 234.421 94.5374 234.253 94.4533 234.168C94.2849 233.832 94.2007 233.495 94.2007 232.906C94.2007 232.738 94.1166 232.569 94.1166 232.485C94.0324 232.401 93.9483 232.233 93.7799 232.149C93.5274 231.98 93.275 231.896 93.1908 231.896H91.9283V234.168C91.9283 234.505 91.6758 234.758 91.3392 234.758C91.0025 234.758 90.7501 234.505 90.7501 234.168V228.024C90.7501 227.688 91.0025 227.435 91.3392 227.435H93.1908C94.4533 227.435 95.4632 228.445 95.4632 229.708C95.4632 230.381 95.1265 230.97 94.6216 231.391C94.7899 231.475 94.8741 231.644 94.9582 231.812C95.1266 232.149 95.2949 232.485 95.2949 232.906C95.2949 233.243 95.2949 233.411 95.2949 233.495C95.5474 233.495 95.7157 233.663 95.7999 233.832ZM94.2849 229.624C94.2849 229.034 93.7799 228.529 93.1908 228.529H91.9283V230.718H93.1908C93.7799 230.718 94.2849 230.213 94.2849 229.624Z" fill="white"/>
<path d="M101.691 228.529H100.008V234.084C100.008 234.421 99.7555 234.673 99.4189 234.673C99.0822 234.673 98.8297 234.421 98.8297 234.084V228.529H97.1464C96.8098 228.529 96.5573 228.277 96.5573 227.94C96.5573 227.604 96.8098 227.351 97.1464 227.351H101.607C101.944 227.351 102.196 227.604 102.196 227.94C102.28 228.277 102.028 228.529 101.691 228.529Z" fill="white"/>
<path d="M122.816 34.6165H12.4779V144.955H122.816V34.6165Z" fill="#EBEBEB"/>
<path d="M67.605 138.895C92.659 138.895 112.969 136.069 112.969 132.583C112.969 129.097 92.659 126.271 67.605 126.271C42.551 126.271 22.2408 129.097 22.2408 132.583C22.2408 136.069 42.551 138.895 67.605 138.895Z" fill="#DBDBDB"/>
<path d="M95.2107 132.247H40.0835C25.1866 132.247 27.5431 120.296 31.1622 107.839C34.697 95.299 39.9994 76.3622 53.2972 76.3622C66.5951 76.3622 67.605 76.3622 67.605 76.3622C67.605 76.3622 68.615 76.3622 81.9129 76.3622C95.2107 76.3622 100.513 95.299 104.048 107.839C107.667 120.296 110.108 132.247 95.2107 132.247Z" fill="#4B8CA9"/>
<g opacity="0.1">
<path d="M51.193 77.5407C51.5184 77.5407 51.7821 77.2769 51.7821 76.9515C51.7821 76.6262 51.5184 76.3624 51.193 76.3624C50.8676 76.3624 50.6038 76.6262 50.6038 76.9515C50.6038 77.2769 50.8676 77.5407 51.193 77.5407Z" fill="black"/>
<path d="M60.6193 77.5407C60.9447 77.5407 61.2085 77.2769 61.2085 76.9515C61.2085 76.6262 60.9447 76.3624 60.6193 76.3624C60.294 76.3624 60.0302 76.6262 60.0302 76.9515C60.0302 77.2769 60.294 77.5407 60.6193 77.5407Z" fill="black"/>
<path d="M69.9615 77.5407C70.2868 77.5407 70.5506 77.2769 70.5506 76.9515C70.5506 76.6262 70.2868 76.3624 69.9615 76.3624C69.6361 76.3624 69.3723 76.6262 69.3723 76.9515C69.3723 77.2769 69.6361 77.5407 69.9615 77.5407Z" fill="black"/>
<path d="M79.3879 77.5407C79.7132 77.5407 79.977 77.2769 79.977 76.9515C79.977 76.6262 79.7132 76.3624 79.3879 76.3624C79.0625 76.3624 78.7987 76.6262 78.7987 76.9515C78.7987 77.2769 79.0625 77.5407 79.3879 77.5407Z" fill="black"/>
<path d="M41.8509 89.5755C42.1763 89.5755 42.44 89.3118 42.44 88.9864C42.44 88.661 42.1763 88.3972 41.8509 88.3972C41.5255 88.3972 41.2617 88.661 41.2617 88.9864C41.2617 89.3118 41.5255 89.5755 41.8509 89.5755Z" fill="black"/>
<path d="M51.193 89.5755C51.5184 89.5755 51.7821 89.3118 51.7821 88.9864C51.7821 88.661 51.5184 88.3972 51.193 88.3972C50.8676 88.3972 50.6038 88.661 50.6038 88.9864C50.6038 89.3118 50.8676 89.5755 51.193 89.5755Z" fill="black"/>
<path d="M60.6193 89.5755C60.9447 89.5755 61.2085 89.3118 61.2085 88.9864C61.2085 88.661 60.9447 88.3972 60.6193 88.3972C60.294 88.3972 60.0302 88.661 60.0302 88.9864C60.0302 89.3118 60.294 89.5755 60.6193 89.5755Z" fill="black"/>
<path d="M69.9615 89.5755C70.2868 89.5755 70.5506 89.3118 70.5506 88.9864C70.5506 88.661 70.2868 88.3972 69.9615 88.3972C69.6361 88.3972 69.3723 88.661 69.3723 88.9864C69.3723 89.3118 69.6361 89.5755 69.9615 89.5755Z" fill="black"/>
<path d="M79.3879 89.5755C79.7132 89.5755 79.977 89.3118 79.977 88.9864C79.977 88.661 79.7132 88.3972 79.3879 88.3972C79.0625 88.3972 78.7987 88.661 78.7987 88.9864C78.7987 89.3118 79.0625 89.5755 79.3879 89.5755Z" fill="black"/>
<path d="M88.8142 89.5755C89.1395 89.5755 89.4033 89.3118 89.4033 88.9864C89.4033 88.661 89.1395 88.3972 88.8142 88.3972C88.4888 88.3972 88.225 88.661 88.225 88.9864C88.225 89.3118 88.4888 89.5755 88.8142 89.5755Z" fill="black"/>
<path d="M46.4799 83.4321C46.8053 83.4321 47.069 83.1684 47.069 82.843C47.069 82.5176 46.8053 82.2539 46.4799 82.2539C46.1545 82.2539 45.8907 82.5176 45.8907 82.843C45.8907 83.1684 46.1545 83.4321 46.4799 83.4321Z" fill="black"/>
<path d="M55.9062 83.4321C56.2316 83.4321 56.4954 83.1684 56.4954 82.843C56.4954 82.5176 56.2316 82.2539 55.9062 82.2539C55.5808 82.2539 55.3171 82.5176 55.3171 82.843C55.3171 83.1684 55.5808 83.4321 55.9062 83.4321Z" fill="black"/>
<path d="M65.3326 83.4321C65.6579 83.4321 65.9217 83.1684 65.9217 82.843C65.9217 82.5176 65.6579 82.2539 65.3326 82.2539C65.0072 82.2539 64.7434 82.5176 64.7434 82.843C64.7434 83.1684 65.0072 83.4321 65.3326 83.4321Z" fill="black"/>
<path d="M74.6747 83.4321C75.0001 83.4321 75.2639 83.1684 75.2639 82.843C75.2639 82.5176 75.0001 82.2539 74.6747 82.2539C74.3494 82.2539 74.0856 82.5176 74.0856 82.843C74.0856 83.1684 74.3494 83.4321 74.6747 83.4321Z" fill="black"/>
<path d="M84.101 83.4321C84.4264 83.4321 84.6902 83.1684 84.6902 82.843C84.6902 82.5176 84.4264 82.2539 84.101 82.2539C83.7757 82.2539 83.5119 82.5176 83.5119 82.843C83.5119 83.1684 83.7757 83.4321 84.101 83.4321Z" fill="black"/>
<path d="M93.9482 83.0953C93.864 83.2636 93.6957 83.3478 93.4432 83.3478C93.1065 83.3478 92.8541 83.0953 92.8541 82.7587C92.8541 82.5062 93.0224 82.2537 93.2749 82.1695C93.5274 82.5903 93.6957 82.8428 93.9482 83.0953Z" fill="black"/>
<path d="M41.8509 101.696C42.1763 101.696 42.44 101.432 42.44 101.107C42.44 100.781 42.1763 100.518 41.8509 100.518C41.5255 100.518 41.2617 100.781 41.2617 101.107C41.2617 101.432 41.5255 101.696 41.8509 101.696Z" fill="black"/>
<path d="M51.193 101.696C51.5184 101.696 51.7821 101.432 51.7821 101.107C51.7821 100.781 51.5184 100.518 51.193 100.518C50.8676 100.518 50.6038 100.781 50.6038 101.107C50.6038 101.432 50.8676 101.696 51.193 101.696Z" fill="black"/>
<path d="M60.6193 101.696C60.9447 101.696 61.2085 101.432 61.2085 101.107C61.2085 100.781 60.9447 100.518 60.6193 100.518C60.294 100.518 60.0302 100.781 60.0302 101.107C60.0302 101.432 60.294 101.696 60.6193 101.696Z" fill="black"/>
<path d="M69.9615 101.696C70.2868 101.696 70.5506 101.432 70.5506 101.107C70.5506 100.781 70.2868 100.518 69.9615 100.518C69.6361 100.518 69.3723 100.781 69.3723 101.107C69.3723 101.432 69.6361 101.696 69.9615 101.696Z" fill="black"/>
<path d="M79.3879 101.696C79.7132 101.696 79.977 101.432 79.977 101.107C79.977 100.781 79.7132 100.518 79.3879 100.518C79.0625 100.518 78.7987 100.781 78.7987 101.107C78.7987 101.432 79.0625 101.696 79.3879 101.696Z" fill="black"/>
<path d="M88.8142 101.696C89.1395 101.696 89.4033 101.432 89.4033 101.107C89.4033 100.781 89.1395 100.518 88.8142 100.518C88.4888 100.518 88.225 100.781 88.225 101.107C88.225 101.432 88.4888 101.696 88.8142 101.696Z" fill="black"/>
<path d="M98.1563 101.696C98.4817 101.696 98.7455 101.432 98.7455 101.107C98.7455 100.781 98.4817 100.518 98.1563 100.518C97.8309 100.518 97.5671 100.781 97.5671 101.107C97.5671 101.432 97.8309 101.696 98.1563 101.696Z" fill="black"/>
<path d="M37.1377 95.467C37.4631 95.467 37.7269 95.2032 37.7269 94.8779C37.7269 94.5525 37.4631 94.2887 37.1377 94.2887C36.8124 94.2887 36.5486 94.5525 36.5486 94.8779C36.5486 95.2032 36.8124 95.467 37.1377 95.467Z" fill="black"/>
<path d="M46.4799 95.467C46.8053 95.467 47.069 95.2032 47.069 94.8779C47.069 94.5525 46.8053 94.2887 46.4799 94.2887C46.1545 94.2887 45.8907 94.5525 45.8907 94.8779C45.8907 95.2032 46.1545 95.467 46.4799 95.467Z" fill="black"/>
<path d="M55.9062 95.467C56.2316 95.467 56.4954 95.2032 56.4954 94.8779C56.4954 94.5525 56.2316 94.2887 55.9062 94.2887C55.5808 94.2887 55.3171 94.5525 55.3171 94.8779C55.3171 95.2032 55.5808 95.467 55.9062 95.467Z" fill="black"/>
<path d="M65.3326 95.467C65.6579 95.467 65.9217 95.2032 65.9217 94.8779C65.9217 94.5525 65.6579 94.2887 65.3326 94.2887C65.0072 94.2887 64.7434 94.5525 64.7434 94.8779C64.7434 95.2032 65.0072 95.467 65.3326 95.467Z" fill="black"/>
<path d="M74.6747 95.467C75.0001 95.467 75.2639 95.2032 75.2639 94.8779C75.2639 94.5525 75.0001 94.2887 74.6747 94.2887C74.3494 94.2887 74.0856 94.5525 74.0856 94.8779C74.0856 95.2032 74.3494 95.467 74.6747 95.467Z" fill="black"/>
<path d="M84.101 95.467C84.4264 95.467 84.6902 95.2032 84.6902 94.8779C84.6902 94.5525 84.4264 94.2887 84.101 94.2887C83.7757 94.2887 83.5119 94.5525 83.5119 94.8779C83.5119 95.2032 83.7757 95.467 84.101 95.467Z" fill="black"/>
<path d="M93.4432 95.467C93.7686 95.467 94.0324 95.2032 94.0324 94.8779C94.0324 94.5525 93.7686 94.2887 93.4432 94.2887C93.1178 94.2887 92.8541 94.5525 92.8541 94.8779C92.8541 95.2032 93.1178 95.467 93.4432 95.467Z" fill="black"/>
<path d="M32.4245 113.731C32.7498 113.731 33.0136 113.467 33.0136 113.141C33.0136 112.816 32.7498 112.552 32.4245 112.552C32.0991 112.552 31.8353 112.816 31.8353 113.141C31.8353 113.467 32.0991 113.731 32.4245 113.731Z" fill="black"/>
<path d="M41.8509 113.731C42.1763 113.731 42.44 113.467 42.44 113.141C42.44 112.816 42.1763 112.552 41.8509 112.552C41.5255 112.552 41.2617 112.816 41.2617 113.141C41.2617 113.467 41.5255 113.731 41.8509 113.731Z" fill="black"/>
<path d="M51.193 113.731C51.5184 113.731 51.7821 113.467 51.7821 113.141C51.7821 112.816 51.5184 112.552 51.193 112.552C50.8676 112.552 50.6038 112.816 50.6038 113.141C50.6038 113.467 50.8676 113.731 51.193 113.731Z" fill="black"/>
<path d="M60.6193 113.731C60.9447 113.731 61.2085 113.467 61.2085 113.141C61.2085 112.816 60.9447 112.552 60.6193 112.552C60.294 112.552 60.0302 112.816 60.0302 113.141C60.0302 113.467 60.294 113.731 60.6193 113.731Z" fill="black"/>
<path d="M69.9615 113.731C70.2868 113.731 70.5506 113.467 70.5506 113.141C70.5506 112.816 70.2868 112.552 69.9615 112.552C69.6361 112.552 69.3723 112.816 69.3723 113.141C69.3723 113.467 69.6361 113.731 69.9615 113.731Z" fill="black"/>
<path d="M79.3879 113.731C79.7132 113.731 79.977 113.467 79.977 113.141C79.977 112.816 79.7132 112.552 79.3879 112.552C79.0625 112.552 78.7987 112.816 78.7987 113.141C78.7987 113.467 79.0625 113.731 79.3879 113.731Z" fill="black"/>
<path d="M88.8142 113.731C89.1395 113.731 89.4033 113.467 89.4033 113.141C89.4033 112.816 89.1395 112.552 88.8142 112.552C88.4888 112.552 88.225 112.816 88.225 113.141C88.225 113.467 88.4888 113.731 88.8142 113.731Z" fill="black"/>
<path d="M98.1563 113.731C98.4817 113.731 98.7455 113.467 98.7455 113.141C98.7455 112.816 98.4817 112.552 98.1563 112.552C97.8309 112.552 97.5671 112.816 97.5671 113.141C97.5671 113.467 97.8309 113.731 98.1563 113.731Z" fill="black"/>
<path d="M37.1377 107.587C37.4631 107.587 37.7269 107.323 37.7269 106.998C37.7269 106.673 37.4631 106.409 37.1377 106.409C36.8124 106.409 36.5486 106.673 36.5486 106.998C36.5486 107.323 36.8124 107.587 37.1377 107.587Z" fill="black"/>
<path d="M46.4799 107.587C46.8053 107.587 47.069 107.323 47.069 106.998C47.069 106.673 46.8053 106.409 46.4799 106.409C46.1545 106.409 45.8907 106.673 45.8907 106.998C45.8907 107.323 46.1545 107.587 46.4799 107.587Z" fill="black"/>
<path d="M55.9062 107.587C56.2316 107.587 56.4954 107.323 56.4954 106.998C56.4954 106.673 56.2316 106.409 55.9062 106.409C55.5808 106.409 55.3171 106.673 55.3171 106.998C55.3171 107.323 55.5808 107.587 55.9062 107.587Z" fill="black"/>
<path d="M65.3326 107.587C65.6579 107.587 65.9217 107.323 65.9217 106.998C65.9217 106.673 65.6579 106.409 65.3326 106.409C65.0072 106.409 64.7434 106.673 64.7434 106.998C64.7434 107.323 65.0072 107.587 65.3326 107.587Z" fill="black"/>
<path d="M74.6747 107.587C75.0001 107.587 75.2639 107.323 75.2639 106.998C75.2639 106.673 75.0001 106.409 74.6747 106.409C74.3494 106.409 74.0856 106.673 74.0856 106.998C74.0856 107.323 74.3494 107.587 74.6747 107.587Z" fill="black"/>
<path d="M84.101 107.587C84.4264 107.587 84.6902 107.323 84.6902 106.998C84.6902 106.673 84.4264 106.409 84.101 106.409C83.7757 106.409 83.5119 106.673 83.5119 106.998C83.5119 107.323 83.7757 107.587 84.101 107.587Z" fill="black"/>
<path d="M93.4432 107.587C93.7686 107.587 94.0324 107.323 94.0324 106.998C94.0324 106.673 93.7686 106.409 93.4432 106.409C93.1178 106.409 92.8541 106.673 92.8541 106.998C92.8541 107.323 93.1178 107.587 93.4432 107.587Z" fill="black"/>
<path d="M102.869 107.587C103.195 107.587 103.459 107.323 103.459 106.998C103.459 106.673 103.195 106.409 102.869 106.409C102.544 106.409 102.28 106.673 102.28 106.998C102.28 107.323 102.544 107.587 102.869 107.587Z" fill="black"/>
<path d="M32.4245 125.85C32.7498 125.85 33.0136 125.587 33.0136 125.261C33.0136 124.936 32.7498 124.672 32.4245 124.672C32.0991 124.672 31.8353 124.936 31.8353 125.261C31.8353 125.587 32.0991 125.85 32.4245 125.85Z" fill="black"/>
<path d="M41.8509 125.85C42.1763 125.85 42.44 125.587 42.44 125.261C42.44 124.936 42.1763 124.672 41.8509 124.672C41.5255 124.672 41.2617 124.936 41.2617 125.261C41.2617 125.587 41.5255 125.85 41.8509 125.85Z" fill="black"/>
<path d="M51.193 125.85C51.5184 125.85 51.7821 125.587 51.7821 125.261C51.7821 124.936 51.5184 124.672 51.193 124.672C50.8676 124.672 50.6038 124.936 50.6038 125.261C50.6038 125.587 50.8676 125.85 51.193 125.85Z" fill="black"/>
<path d="M60.6193 125.85C60.9447 125.85 61.2085 125.587 61.2085 125.261C61.2085 124.936 60.9447 124.672 60.6193 124.672C60.294 124.672 60.0302 124.936 60.0302 125.261C60.0302 125.587 60.294 125.85 60.6193 125.85Z" fill="black"/>
<path d="M69.9615 125.85C70.2868 125.85 70.5506 125.587 70.5506 125.261C70.5506 124.936 70.2868 124.672 69.9615 124.672C69.6361 124.672 69.3723 124.936 69.3723 125.261C69.3723 125.587 69.6361 125.85 69.9615 125.85Z" fill="black"/>
<path d="M79.3879 125.85C79.7132 125.85 79.977 125.587 79.977 125.261C79.977 124.936 79.7132 124.672 79.3879 124.672C79.0625 124.672 78.7987 124.936 78.7987 125.261C78.7987 125.587 79.0625 125.85 79.3879 125.85Z" fill="black"/>
<path d="M88.8142 125.85C89.1395 125.85 89.4033 125.587 89.4033 125.261C89.4033 124.936 89.1395 124.672 88.8142 124.672C88.4888 124.672 88.225 124.936 88.225 125.261C88.225 125.587 88.4888 125.85 88.8142 125.85Z" fill="black"/>
<path d="M98.1563 125.85C98.4817 125.85 98.7455 125.587 98.7455 125.261C98.7455 124.936 98.4817 124.672 98.1563 124.672C97.8309 124.672 97.5671 124.936 97.5671 125.261C97.5671 125.587 97.8309 125.85 98.1563 125.85Z" fill="black"/>
<path d="M37.1377 119.622C37.4631 119.622 37.7269 119.358 37.7269 119.033C37.7269 118.708 37.4631 118.444 37.1377 118.444C36.8124 118.444 36.5486 118.708 36.5486 119.033C36.5486 119.358 36.8124 119.622 37.1377 119.622Z" fill="black"/>
<path d="M46.4799 119.622C46.8053 119.622 47.069 119.358 47.069 119.033C47.069 118.708 46.8053 118.444 46.4799 118.444C46.1545 118.444 45.8907 118.708 45.8907 119.033C45.8907 119.358 46.1545 119.622 46.4799 119.622Z" fill="black"/>
<path d="M55.9062 119.622C56.2316 119.622 56.4954 119.358 56.4954 119.033C56.4954 118.708 56.2316 118.444 55.9062 118.444C55.5808 118.444 55.3171 118.708 55.3171 119.033C55.3171 119.358 55.5808 119.622 55.9062 119.622Z" fill="black"/>
<path d="M65.3326 119.622C65.6579 119.622 65.9217 119.358 65.9217 119.033C65.9217 118.708 65.6579 118.444 65.3326 118.444C65.0072 118.444 64.7434 118.708 64.7434 119.033C64.7434 119.358 65.0072 119.622 65.3326 119.622Z" fill="black"/>
<path d="M74.6747 119.622C75.0001 119.622 75.2639 119.358 75.2639 119.033C75.2639 118.708 75.0001 118.444 74.6747 118.444C74.3494 118.444 74.0856 118.708 74.0856 119.033C74.0856 119.358 74.3494 119.622 74.6747 119.622Z" fill="black"/>
<path d="M84.101 119.622C84.4264 119.622 84.6902 119.358 84.6902 119.033C84.6902 118.708 84.4264 118.444 84.101 118.444C83.7757 118.444 83.5119 118.708 83.5119 119.033C83.5119 119.358 83.7757 119.622 84.101 119.622Z" fill="black"/>
<path d="M93.4432 119.622C93.7686 119.622 94.0324 119.358 94.0324 119.033C94.0324 118.708 93.7686 118.444 93.4432 118.444C93.1178 118.444 92.8541 118.708 92.8541 119.033C92.8541 119.358 93.1178 119.622 93.4432 119.622Z" fill="black"/>
<path d="M102.869 119.622C103.195 119.622 103.459 119.358 103.459 119.033C103.459 118.708 103.195 118.444 102.869 118.444C102.544 118.444 102.28 118.708 102.28 119.033C102.28 119.358 102.544 119.622 102.869 119.622Z" fill="black"/>
<path d="M37.1377 131.742C37.4631 131.742 37.7269 131.478 37.7269 131.153C37.7269 130.827 37.4631 130.564 37.1377 130.564C36.8124 130.564 36.5486 130.827 36.5486 131.153C36.5486 131.478 36.8124 131.742 37.1377 131.742Z" fill="black"/>
<path d="M46.4799 131.742C46.8053 131.742 47.069 131.478 47.069 131.153C47.069 130.827 46.8053 130.564 46.4799 130.564C46.1545 130.564 45.8907 130.827 45.8907 131.153C45.8907 131.478 46.1545 131.742 46.4799 131.742Z" fill="black"/>
<path d="M55.9062 131.742C56.2316 131.742 56.4954 131.478 56.4954 131.153C56.4954 130.827 56.2316 130.564 55.9062 130.564C55.5808 130.564 55.3171 130.827 55.3171 131.153C55.3171 131.478 55.5808 131.742 55.9062 131.742Z" fill="black"/>
<path d="M65.3326 131.742C65.6579 131.742 65.9217 131.478 65.9217 131.153C65.9217 130.827 65.6579 130.564 65.3326 130.564C65.0072 130.564 64.7434 130.827 64.7434 131.153C64.7434 131.478 65.0072 131.742 65.3326 131.742Z" fill="black"/>
<path d="M74.6747 131.742C75.0001 131.742 75.2639 131.478 75.2639 131.153C75.2639 130.827 75.0001 130.564 74.6747 130.564C74.3494 130.564 74.0856 130.827 74.0856 131.153C74.0856 131.478 74.3494 131.742 74.6747 131.742Z" fill="black"/>
<path d="M84.101 131.742C84.4264 131.742 84.6902 131.478 84.6902 131.153C84.6902 130.827 84.4264 130.564 84.101 130.564C83.7757 130.564 83.5119 130.827 83.5119 131.153C83.5119 131.478 83.7757 131.742 84.101 131.742Z" fill="black"/>
<path d="M93.4432 131.742C93.7686 131.742 94.0324 131.478 94.0324 131.153C94.0324 130.827 93.7686 130.564 93.4432 130.564C93.1178 130.564 92.8541 130.827 92.8541 131.153C92.8541 131.478 93.1178 131.742 93.4432 131.742Z" fill="black"/>
<path d="M102.784 130.564C102.701 130.647 102.617 130.731 102.449 130.731C102.533 130.647 102.617 130.564 102.784 130.564Z" fill="black"/>
</g>
<path opacity="0.1" d="M52.4555 87.4717C54.9655 87.4717 57.0003 85.4369 57.0003 82.9268C57.0003 80.4168 54.9655 78.382 52.4555 78.382C49.9455 78.382 47.9106 80.4168 47.9106 82.9268C47.9106 85.4369 49.9455 87.4717 52.4555 87.4717Z" fill="black"/>
<path opacity="0.1" d="M82.8386 87.4717C85.3486 87.4717 87.3835 85.4369 87.3835 82.9268C87.3835 80.4168 85.3486 78.382 82.8386 78.382C80.3285 78.382 78.2938 80.4168 78.2938 82.9268C78.2938 85.4369 80.3285 87.4717 82.8386 87.4717Z" fill="black"/>
<path d="M52.4556 86.0407C54.1754 86.0407 55.5696 84.6465 55.5696 82.9266C55.5696 81.2068 54.1754 79.8126 52.4556 79.8126C50.7357 79.8126 49.3415 81.2068 49.3415 82.9266C49.3415 84.6465 50.7357 86.0407 52.4556 86.0407Z" fill="#263238"/>
<path d="M82.8386 86.0407C84.5585 86.0407 85.9527 84.6465 85.9527 82.9266C85.9527 81.2068 84.5585 79.8126 82.8386 79.8126C81.1188 79.8126 79.7246 81.2068 79.7246 82.9266C79.7246 84.6465 81.1188 86.0407 82.8386 86.0407Z" fill="#263238"/>
<path d="M82.8385 83.5997C81.9127 83.5997 81.0711 82.8422 81.0711 81.8322C81.0711 81.0748 80.482 73.0792 78.462 65.4203C76.6946 58.8556 73.4964 51.1125 68.0258 51.1125C57.9261 51.1125 54.1388 76.6141 54.1388 81.8322C54.1388 82.758 53.3813 83.5997 52.3713 83.5997C51.4455 83.5997 50.6039 82.8422 50.6039 81.8322C50.6039 81.4956 52.708 47.6618 68.0258 47.6618C82.8386 47.6618 84.606 81.4956 84.606 81.8322C84.606 82.8422 83.8485 83.5997 82.8385 83.5997Z" fill="#4B8CA9"/>
<path d="M32.1722 172.897H12.4779V192.591H32.1722V172.897Z" fill="#EBEBEB"/>
<path d="M27.2066 190.235H17.3594C14.6662 190.235 15.1712 188.131 15.7603 185.858C16.4336 183.67 17.3594 180.219 19.716 180.219C22.0726 180.219 22.2409 180.219 22.2409 180.219C22.2409 180.219 22.4092 180.219 24.7658 180.219C27.1224 180.219 28.0482 183.586 28.7215 185.858C29.479 188.131 29.8998 190.235 27.2066 190.235Z" fill="#455A64"/>
<g opacity="0.1">
<path d="M19.3791 180.472C19.4255 180.472 19.4631 180.434 19.4631 180.388C19.4631 180.342 19.4255 180.304 19.3791 180.304C19.3327 180.304 19.2952 180.342 19.2952 180.388C19.2952 180.434 19.3327 180.472 19.3791 180.472Z" fill="black"/>
<path d="M21.0625 180.472C21.1088 180.472 21.1464 180.434 21.1464 180.388C21.1464 180.342 21.1088 180.304 21.0625 180.304C21.0161 180.304 20.9785 180.342 20.9785 180.388C20.9785 180.434 21.0161 180.472 21.0625 180.472Z" fill="black"/>
<path d="M22.7456 180.472C22.792 180.472 22.8296 180.434 22.8296 180.388C22.8296 180.342 22.792 180.304 22.7456 180.304C22.6993 180.304 22.6617 180.342 22.6617 180.388C22.6617 180.434 22.6993 180.472 22.7456 180.472Z" fill="black"/>
<path d="M24.4289 180.472C24.4753 180.472 24.5129 180.434 24.5129 180.388C24.5129 180.342 24.4753 180.304 24.4289 180.304C24.3825 180.304 24.345 180.342 24.345 180.388C24.345 180.434 24.3825 180.472 24.4289 180.472Z" fill="black"/>
<path d="M17.6958 182.66C17.7422 182.66 17.7798 182.623 17.7798 182.576C17.7798 182.53 17.7422 182.493 17.6958 182.493C17.6495 182.493 17.6119 182.53 17.6119 182.576C17.6119 182.623 17.6495 182.66 17.6958 182.66Z" fill="black"/>
<path d="M19.3791 182.66C19.4255 182.66 19.4631 182.623 19.4631 182.576C19.4631 182.53 19.4255 182.493 19.3791 182.493C19.3327 182.493 19.2952 182.53 19.2952 182.576C19.2952 182.623 19.3327 182.66 19.3791 182.66Z" fill="black"/>
<path d="M21.0625 182.66C21.1088 182.66 21.1464 182.623 21.1464 182.576C21.1464 182.53 21.1088 182.493 21.0625 182.493C21.0161 182.493 20.9785 182.53 20.9785 182.576C20.9785 182.623 21.0161 182.66 21.0625 182.66Z" fill="black"/>
<path d="M22.7456 182.66C22.792 182.66 22.8296 182.623 22.8296 182.576C22.8296 182.53 22.792 182.493 22.7456 182.493C22.6993 182.493 22.6617 182.53 22.6617 182.576C22.6617 182.623 22.6993 182.66 22.7456 182.66Z" fill="black"/>
<path d="M24.4289 182.66C24.4753 182.66 24.5129 182.623 24.5129 182.576C24.5129 182.53 24.4753 182.493 24.4289 182.493C24.3825 182.493 24.345 182.53 24.345 182.576C24.345 182.623 24.3825 182.66 24.4289 182.66Z" fill="black"/>
<path d="M26.028 182.66C26.0744 182.66 26.112 182.623 26.112 182.576C26.112 182.53 26.0744 182.493 26.028 182.493C25.9817 182.493 25.9441 182.53 25.9441 182.576C25.9441 182.623 25.9817 182.66 26.028 182.66Z" fill="black"/>
<path d="M18.5375 181.566C18.5839 181.566 18.6215 181.529 18.6215 181.482C18.6215 181.436 18.5839 181.398 18.5375 181.398C18.4911 181.398 18.4536 181.436 18.4536 181.482C18.4536 181.529 18.4911 181.566 18.5375 181.566Z" fill="black"/>
<path d="M20.2208 181.566C20.2671 181.566 20.3047 181.529 20.3047 181.482C20.3047 181.436 20.2671 181.398 20.2208 181.398C20.1744 181.398 20.1368 181.436 20.1368 181.482C20.1368 181.529 20.1744 181.566 20.2208 181.566Z" fill="black"/>
<path d="M21.904 181.566C21.9503 181.566 21.9879 181.529 21.9879 181.482C21.9879 181.436 21.9503 181.398 21.904 181.398C21.8576 181.398 21.82 181.436 21.82 181.482C21.82 181.529 21.8576 181.566 21.904 181.566Z" fill="black"/>
<path d="M23.5873 181.566C23.6337 181.566 23.6713 181.529 23.6713 181.482C23.6713 181.436 23.6337 181.398 23.5873 181.398C23.5409 181.398 23.5034 181.436 23.5034 181.482C23.5034 181.529 23.5409 181.566 23.5873 181.566Z" fill="black"/>
<path d="M25.2706 181.566C25.317 181.566 25.3545 181.529 25.3545 181.482C25.3545 181.436 25.317 181.398 25.2706 181.398C25.2242 181.398 25.1866 181.436 25.1866 181.482C25.1866 181.529 25.2242 181.566 25.2706 181.566Z" fill="black"/>
<path d="M26.9537 181.566L26.8697 181.65C26.7858 181.65 26.7858 181.566 26.7858 181.566C26.7858 181.482 26.7858 181.482 26.8697 181.482C26.9537 181.398 26.9537 181.482 26.9537 181.566Z" fill="black"/>
<path d="M17.6958 184.848C17.7422 184.848 17.7798 184.811 17.7798 184.765C17.7798 184.718 17.7422 184.681 17.6958 184.681C17.6495 184.681 17.6119 184.718 17.6119 184.765C17.6119 184.811 17.6495 184.848 17.6958 184.848Z" fill="black"/>
<path d="M19.3791 184.848C19.4255 184.848 19.4631 184.811 19.4631 184.765C19.4631 184.718 19.4255 184.681 19.3791 184.681C19.3327 184.681 19.2952 184.718 19.2952 184.765C19.2952 184.811 19.3327 184.848 19.3791 184.848Z" fill="black"/>
<path d="M21.0625 184.848C21.1088 184.848 21.1464 184.811 21.1464 184.765C21.1464 184.718 21.1088 184.681 21.0625 184.681C21.0161 184.681 20.9785 184.718 20.9785 184.765C20.9785 184.811 21.0161 184.848 21.0625 184.848Z" fill="black"/>
<path d="M22.7456 184.848C22.792 184.848 22.8296 184.811 22.8296 184.765C22.8296 184.718 22.792 184.681 22.7456 184.681C22.6993 184.681 22.6617 184.718 22.6617 184.765C22.6617 184.811 22.6993 184.848 22.7456 184.848Z" fill="black"/>
<path d="M24.4289 184.848C24.4753 184.848 24.5129 184.811 24.5129 184.765C24.5129 184.718 24.4753 184.681 24.4289 184.681C24.3825 184.681 24.345 184.718 24.345 184.765C24.345 184.811 24.3825 184.848 24.4289 184.848Z" fill="black"/>
<path d="M26.028 184.848C26.0744 184.848 26.112 184.811 26.112 184.765C26.112 184.718 26.0744 184.681 26.028 184.681C25.9817 184.681 25.9441 184.718 25.9441 184.765C25.9441 184.811 25.9817 184.848 26.028 184.848Z" fill="black"/>
<path d="M27.7113 184.848C27.7577 184.848 27.7953 184.811 27.7953 184.765C27.7953 184.718 27.7577 184.681 27.7113 184.681C27.6649 184.681 27.6274 184.718 27.6274 184.765C27.6274 184.811 27.6649 184.848 27.7113 184.848Z" fill="black"/>
<path d="M16.8541 183.67C16.9005 183.67 16.9381 183.632 16.9381 183.586C16.9381 183.54 16.9005 183.502 16.8541 183.502C16.8078 183.502 16.7702 183.54 16.7702 183.586C16.7702 183.632 16.8078 183.67 16.8541 183.67Z" fill="black"/>
<path d="M18.5375 183.67C18.5839 183.67 18.6215 183.632 18.6215 183.586C18.6215 183.54 18.5839 183.502 18.5375 183.502C18.4911 183.502 18.4536 183.54 18.4536 183.586C18.4536 183.632 18.4911 183.67 18.5375 183.67Z" fill="black"/>
<path d="M20.2208 183.67C20.2671 183.67 20.3047 183.632 20.3047 183.586C20.3047 183.54 20.2671 183.502 20.2208 183.502C20.1744 183.502 20.1368 183.54 20.1368 183.586C20.1368 183.632 20.1744 183.67 20.2208 183.67Z" fill="black"/>
<path d="M21.904 183.67C21.9503 183.67 21.9879 183.632 21.9879 183.586C21.9879 183.54 21.9503 183.502 21.904 183.502C21.8576 183.502 21.82 183.54 21.82 183.586C21.82 183.632 21.8576 183.67 21.904 183.67Z" fill="black"/>
<path d="M23.5873 183.67C23.6337 183.67 23.6713 183.632 23.6713 183.586C23.6713 183.54 23.6337 183.502 23.5873 183.502C23.5409 183.502 23.5034 183.54 23.5034 183.586C23.5034 183.632 23.5409 183.67 23.5873 183.67Z" fill="black"/>
<path d="M25.2706 183.67C25.317 183.67 25.3545 183.632 25.3545 183.586C25.3545 183.54 25.317 183.502 25.2706 183.502C25.2242 183.502 25.1866 183.54 25.1866 183.586C25.1866 183.632 25.2242 183.67 25.2706 183.67Z" fill="black"/>
<path d="M26.8697 183.67C26.9161 183.67 26.9537 183.632 26.9537 183.586C26.9537 183.54 26.9161 183.502 26.8697 183.502C26.8234 183.502 26.7858 183.54 26.7858 183.586C26.7858 183.632 26.8234 183.67 26.8697 183.67Z" fill="black"/>
<path d="M16.0125 186.953C16.0589 186.953 16.0965 186.915 16.0965 186.869C16.0965 186.822 16.0589 186.785 16.0125 186.785C15.9662 186.785 15.9286 186.822 15.9286 186.869C15.9286 186.915 15.9662 186.953 16.0125 186.953Z" fill="black"/>
<path d="M17.6958 186.953C17.7422 186.953 17.7798 186.915 17.7798 186.869C17.7798 186.822 17.7422 186.785 17.6958 186.785C17.6495 186.785 17.6119 186.822 17.6119 186.869C17.6119 186.915 17.6495 186.953 17.6958 186.953Z" fill="black"/>
<path d="M19.3791 186.953C19.4255 186.953 19.4631 186.915 19.4631 186.869C19.4631 186.822 19.4255 186.785 19.3791 186.785C19.3327 186.785 19.2952 186.822 19.2952 186.869C19.2952 186.915 19.3327 186.953 19.3791 186.953Z" fill="black"/>
<path d="M21.0625 186.953C21.1088 186.953 21.1464 186.915 21.1464 186.869C21.1464 186.822 21.1088 186.785 21.0625 186.785C21.0161 186.785 20.9785 186.822 20.9785 186.869C20.9785 186.915 21.0161 186.953 21.0625 186.953Z" fill="black"/>
<path d="M22.7456 186.953C22.792 186.953 22.8296 186.915 22.8296 186.869C22.8296 186.822 22.792 186.785 22.7456 186.785C22.6993 186.785 22.6617 186.822 22.6617 186.869C22.6617 186.915 22.6993 186.953 22.7456 186.953Z" fill="black"/>
<path d="M24.4289 186.953C24.4753 186.953 24.5129 186.915 24.5129 186.869C24.5129 186.822 24.4753 186.785 24.4289 186.785C24.3825 186.785 24.345 186.822 24.345 186.869C24.345 186.915 24.3825 186.953 24.4289 186.953Z" fill="black"/>
<path d="M26.028 186.953C26.0744 186.953 26.112 186.915 26.112 186.869C26.112 186.822 26.0744 186.785 26.028 186.785C25.9817 186.785 25.9441 186.822 25.9441 186.869C25.9441 186.915 25.9817 186.953 26.028 186.953Z" fill="black"/>
<path d="M27.7113 186.953C27.7577 186.953 27.7953 186.915 27.7953 186.869C27.7953 186.822 27.7577 186.785 27.7113 186.785C27.6649 186.785 27.6274 186.822 27.6274 186.869C27.6274 186.915 27.6649 186.953 27.7113 186.953Z" fill="black"/>
<path d="M16.8541 185.858C16.9005 185.858 16.9381 185.821 16.9381 185.774C16.9381 185.728 16.9005 185.69 16.8541 185.69C16.8078 185.69 16.7702 185.728 16.7702 185.774C16.7702 185.821 16.8078 185.858 16.8541 185.858Z" fill="black"/>
<path d="M18.5375 185.858C18.5839 185.858 18.6215 185.821 18.6215 185.774C18.6215 185.728 18.5839 185.69 18.5375 185.69C18.4911 185.69 18.4536 185.728 18.4536 185.774C18.4536 185.821 18.4911 185.858 18.5375 185.858Z" fill="black"/>
<path d="M20.2208 185.858C20.2671 185.858 20.3047 185.821 20.3047 185.774C20.3047 185.728 20.2671 185.69 20.2208 185.69C20.1744 185.69 20.1368 185.728 20.1368 185.774C20.1368 185.821 20.1744 185.858 20.2208 185.858Z" fill="black"/>
<path d="M21.904 185.858C21.9503 185.858 21.9879 185.821 21.9879 185.774C21.9879 185.728 21.9503 185.69 21.904 185.69C21.8576 185.69 21.82 185.728 21.82 185.774C21.82 185.821 21.8576 185.858 21.904 185.858Z" fill="black"/>
<path d="M23.5873 185.858C23.6337 185.858 23.6713 185.821 23.6713 185.774C23.6713 185.728 23.6337 185.69 23.5873 185.69C23.5409 185.69 23.5034 185.728 23.5034 185.774C23.5034 185.821 23.5409 185.858 23.5873 185.858Z" fill="black"/>
<path d="M25.2706 185.858C25.317 185.858 25.3545 185.821 25.3545 185.774C25.3545 185.728 25.317 185.69 25.2706 185.69C25.2242 185.69 25.1866 185.728 25.1866 185.774C25.1866 185.821 25.2242 185.858 25.2706 185.858Z" fill="black"/>
<path d="M26.8697 185.858C26.9161 185.858 26.9537 185.821 26.9537 185.774C26.9537 185.728 26.9161 185.69 26.8697 185.69C26.8234 185.69 26.7858 185.728 26.7858 185.774C26.7858 185.821 26.8234 185.858 26.8697 185.858Z" fill="black"/>
<path d="M28.553 185.858C28.5994 185.858 28.6369 185.821 28.6369 185.774C28.6369 185.728 28.5994 185.69 28.553 185.69C28.5066 185.69 28.4691 185.728 28.4691 185.774C28.4691 185.821 28.5066 185.858 28.553 185.858Z" fill="black"/>
<path d="M16.0125 189.141C16.0589 189.141 16.0965 189.103 16.0965 189.057C16.0965 189.01 16.0589 188.973 16.0125 188.973C15.9662 188.973 15.9286 189.01 15.9286 189.057C15.9286 189.103 15.9662 189.141 16.0125 189.141Z" fill="black"/>
<path d="M17.6958 189.141C17.7422 189.141 17.7798 189.103 17.7798 189.057C17.7798 189.01 17.7422 188.973 17.6958 188.973C17.6495 188.973 17.6119 189.01 17.6119 189.057C17.6119 189.103 17.6495 189.141 17.6958 189.141Z" fill="black"/>
<path d="M19.3791 189.141C19.4255 189.141 19.4631 189.103 19.4631 189.057C19.4631 189.01 19.4255 188.973 19.3791 188.973C19.3327 188.973 19.2952 189.01 19.2952 189.057C19.2952 189.103 19.3327 189.141 19.3791 189.141Z" fill="black"/>
<path d="M21.0625 189.141C21.1088 189.141 21.1464 189.103 21.1464 189.057C21.1464 189.01 21.1088 188.973 21.0625 188.973C21.0161 188.973 20.9785 189.01 20.9785 189.057C20.9785 189.103 21.0161 189.141 21.0625 189.141Z" fill="black"/>
<path d="M22.7456 189.141C22.792 189.141 22.8296 189.103 22.8296 189.057C22.8296 189.01 22.792 188.973 22.7456 188.973C22.6993 188.973 22.6617 189.01 22.6617 189.057C22.6617 189.103 22.6993 189.141 22.7456 189.141Z" fill="black"/>
<path d="M24.4289 189.141C24.4753 189.141 24.5129 189.103 24.5129 189.057C24.5129 189.01 24.4753 188.973 24.4289 188.973C24.3825 188.973 24.345 189.01 24.345 189.057C24.345 189.103 24.3825 189.141 24.4289 189.141Z" fill="black"/>
<path d="M26.028 189.141C26.0744 189.141 26.112 189.103 26.112 189.057C26.112 189.01 26.0744 188.973 26.028 188.973C25.9817 188.973 25.9441 189.01 25.9441 189.057C25.9441 189.103 25.9817 189.141 26.028 189.141Z" fill="black"/>
<path d="M27.7113 189.141C27.7577 189.141 27.7953 189.103 27.7953 189.057C27.7953 189.01 27.7577 188.973 27.7113 188.973C27.6649 188.973 27.6274 189.01 27.6274 189.057C27.6274 189.103 27.6649 189.141 27.7113 189.141Z" fill="black"/>
<path d="M16.8541 188.047C16.9005 188.047 16.9381 188.009 16.9381 187.963C16.9381 187.917 16.9005 187.879 16.8541 187.879C16.8078 187.879 16.7702 187.917 16.7702 187.963C16.7702 188.009 16.8078 188.047 16.8541 188.047Z" fill="black"/>
<path d="M18.5375 188.047C18.5839 188.047 18.6215 188.009 18.6215 187.963C18.6215 187.917 18.5839 187.879 18.5375 187.879C18.4911 187.879 18.4536 187.917 18.4536 187.963C18.4536 188.009 18.4911 188.047 18.5375 188.047Z" fill="black"/>
<path d="M20.2208 188.047C20.2671 188.047 20.3047 188.009 20.3047 187.963C20.3047 187.917 20.2671 187.879 20.2208 187.879C20.1744 187.879 20.1368 187.917 20.1368 187.963C20.1368 188.009 20.1744 188.047 20.2208 188.047Z" fill="black"/>
<path d="M21.904 188.047C21.9503 188.047 21.9879 188.009 21.9879 187.963C21.9879 187.917 21.9503 187.879 21.904 187.879C21.8576 187.879 21.82 187.917 21.82 187.963C21.82 188.009 21.8576 188.047 21.904 188.047Z" fill="black"/>
<path d="M23.5873 188.047C23.6337 188.047 23.6713 188.009 23.6713 187.963C23.6713 187.917 23.6337 187.879 23.5873 187.879C23.5409 187.879 23.5034 187.917 23.5034 187.963C23.5034 188.009 23.5409 188.047 23.5873 188.047Z" fill="black"/>
<path d="M25.2706 188.047C25.317 188.047 25.3545 188.009 25.3545 187.963C25.3545 187.917 25.317 187.879 25.2706 187.879C25.2242 187.879 25.1866 187.917 25.1866 187.963C25.1866 188.009 25.2242 188.047 25.2706 188.047Z" fill="black"/>
<path d="M26.8697 188.047C26.9161 188.047 26.9537 188.009 26.9537 187.963C26.9537 187.917 26.9161 187.879 26.8697 187.879C26.8234 187.879 26.7858 187.917 26.7858 187.963C26.7858 188.009 26.8234 188.047 26.8697 188.047Z" fill="black"/>
<path d="M28.553 188.047C28.5994 188.047 28.6369 188.009 28.6369 187.963C28.6369 187.917 28.5994 187.879 28.553 187.879C28.5066 187.879 28.4691 187.917 28.4691 187.963C28.4691 188.009 28.5066 188.047 28.553 188.047Z" fill="black"/>
<path d="M16.8541 190.151C16.9005 190.151 16.9381 190.113 16.9381 190.067C16.9381 190.02 16.9005 189.983 16.8541 189.983C16.8078 189.983 16.7702 190.02 16.7702 190.067C16.7702 190.113 16.8078 190.151 16.8541 190.151Z" fill="black"/>
<path d="M18.5375 190.151C18.5839 190.151 18.6215 190.113 18.6215 190.067C18.6215 190.02 18.5839 189.983 18.5375 189.983C18.4911 189.983 18.4536 190.02 18.4536 190.067C18.4536 190.113 18.4911 190.151 18.5375 190.151Z" fill="black"/>
<path d="M20.2208 190.151C20.2671 190.151 20.3047 190.113 20.3047 190.067C20.3047 190.02 20.2671 189.983 20.2208 189.983C20.1744 189.983 20.1368 190.02 20.1368 190.067C20.1368 190.113 20.1744 190.151 20.2208 190.151Z" fill="black"/>
<path d="M21.904 190.151C21.9503 190.151 21.9879 190.113 21.9879 190.067C21.9879 190.02 21.9503 189.983 21.904 189.983C21.8576 189.983 21.82 190.02 21.82 190.067C21.82 190.113 21.8576 190.151 21.904 190.151Z" fill="black"/>
<path d="M23.5873 190.151C23.6337 190.151 23.6713 190.113 23.6713 190.067C23.6713 190.02 23.6337 189.983 23.5873 189.983C23.5409 189.983 23.5034 190.02 23.5034 190.067C23.5034 190.113 23.5409 190.151 23.5873 190.151Z" fill="black"/>
<path d="M25.2706 190.151C25.317 190.151 25.3545 190.113 25.3545 190.067C25.3545 190.02 25.317 189.983 25.2706 189.983C25.2242 189.983 25.1866 190.02 25.1866 190.067C25.1866 190.113 25.2242 190.151 25.2706 190.151Z" fill="black"/>
<path d="M26.8697 190.151C26.9161 190.151 26.9537 190.113 26.9537 190.067C26.9537 190.02 26.9161 189.983 26.8697 189.983C26.8234 189.983 26.7858 190.02 26.7858 190.067C26.7858 190.113 26.8234 190.151 26.8697 190.151Z" fill="black"/>
</g>
<path opacity="0.1" d="M19.6318 182.324C20.0966 182.324 20.4734 181.947 20.4734 181.482C20.4734 181.018 20.0966 180.641 19.6318 180.641C19.167 180.641 18.7902 181.018 18.7902 181.482C18.7902 181.947 19.167 182.324 19.6318 182.324Z" fill="black"/>
<path opacity="0.1" d="M25.0183 182.324C25.4831 182.324 25.8599 181.947 25.8599 181.482C25.8599 181.018 25.4831 180.641 25.0183 180.641C24.5534 180.641 24.1766 181.018 24.1766 181.482C24.1766 181.947 24.5534 182.324 25.0183 182.324Z" fill="black"/>
<path d="M19.6318 182.072C19.9572 182.072 20.2209 181.808 20.2209 181.482C20.2209 181.157 19.9572 180.893 19.6318 180.893C19.3064 180.893 19.0427 181.157 19.0427 181.482C19.0427 181.808 19.3064 182.072 19.6318 182.072Z" fill="#263238"/>
<path d="M25.0183 182.072C25.3437 182.072 25.6074 181.808 25.6074 181.482C25.6074 181.157 25.3437 180.893 25.0183 180.893C24.6929 180.893 24.4291 181.157 24.4291 181.482C24.4291 181.808 24.6929 182.072 25.0183 182.072Z" fill="#263238"/>
<path d="M25.0184 181.651C24.85 181.651 24.6817 181.482 24.6817 181.314C24.6817 181.146 24.5975 179.715 24.1767 178.368C23.8401 177.19 23.2509 175.843 22.3251 175.843C20.5577 175.843 19.8844 180.388 19.8844 181.314C19.8844 181.482 19.716 181.651 19.5477 181.651C19.3794 181.651 19.2111 181.482 19.2111 181.314C19.2111 181.23 19.5477 175.254 22.3251 175.254C24.9342 175.254 25.2708 181.314 25.2708 181.314C25.355 181.482 25.1867 181.651 25.0184 181.651Z" fill="#455A64"/>
<path d="M56.4953 172.897H36.801V192.591H56.4953V172.897Z" fill="#EBEBEB"/>
<path d="M56.8319 192.928H36.296V172.392H56.8319V192.928ZM37.2218 192.087H56.0745V173.234H37.2218V192.087Z" fill="#263238"/>
<path d="M51.5297 190.235H41.6825C38.9893 190.235 39.4943 188.131 40.0834 185.858C40.7567 183.67 41.6826 180.219 44.0391 180.219C46.3957 180.219 46.564 180.219 46.564 180.219C46.564 180.219 46.7324 180.219 49.089 180.219C51.4455 180.219 52.3713 183.586 53.0446 185.858C53.7179 188.131 54.1388 190.235 51.5297 190.235Z" fill="#4B8CA9"/>
<g opacity="0.1">
<path d="M43.7024 180.472C43.7488 180.472 43.7864 180.434 43.7864 180.388C43.7864 180.342 43.7488 180.304 43.7024 180.304C43.656 180.304 43.6185 180.342 43.6185 180.388C43.6185 180.434 43.656 180.472 43.7024 180.472Z" fill="black"/>
<path d="M45.3856 180.472C45.4319 180.472 45.4695 180.434 45.4695 180.388C45.4695 180.342 45.4319 180.304 45.3856 180.304C45.3392 180.304 45.3016 180.342 45.3016 180.388C45.3016 180.434 45.3392 180.472 45.3856 180.472Z" fill="black"/>
<path d="M46.9847 180.472C47.031 180.472 47.0686 180.434 47.0686 180.388C47.0686 180.342 47.031 180.304 46.9847 180.304C46.9383 180.304 46.9007 180.342 46.9007 180.388C46.9007 180.434 46.9383 180.472 46.9847 180.472Z" fill="black"/>
<path d="M48.668 180.472C48.7144 180.472 48.7519 180.434 48.7519 180.388C48.7519 180.342 48.7144 180.304 48.668 180.304C48.6216 180.304 48.584 180.342 48.584 180.388C48.584 180.434 48.6216 180.472 48.668 180.472Z" fill="black"/>
<path d="M42.0191 182.66C42.0654 182.66 42.103 182.623 42.103 182.576C42.103 182.53 42.0654 182.492 42.0191 182.492C41.9727 182.492 41.9351 182.53 41.9351 182.576C41.9351 182.623 41.9727 182.66 42.0191 182.66Z" fill="black"/>
<path d="M43.7024 182.66C43.7488 182.66 43.7864 182.623 43.7864 182.576C43.7864 182.53 43.7488 182.492 43.7024 182.492C43.656 182.492 43.6185 182.53 43.6185 182.576C43.6185 182.623 43.656 182.66 43.7024 182.66Z" fill="black"/>
<path d="M45.3856 182.66C45.4319 182.66 45.4695 182.623 45.4695 182.576C45.4695 182.53 45.4319 182.492 45.3856 182.492C45.3392 182.492 45.3016 182.53 45.3016 182.576C45.3016 182.623 45.3392 182.66 45.3856 182.66Z" fill="black"/>
<path d="M46.9847 182.66C47.031 182.66 47.0686 182.623 47.0686 182.576C47.0686 182.53 47.031 182.492 46.9847 182.492C46.9383 182.492 46.9007 182.53 46.9007 182.576C46.9007 182.623 46.9383 182.66 46.9847 182.66Z" fill="black"/>
<path d="M48.668 182.66C48.7144 182.66 48.7519 182.623 48.7519 182.576C48.7519 182.53 48.7144 182.492 48.668 182.492C48.6216 182.492 48.584 182.53 48.584 182.576C48.584 182.623 48.6216 182.66 48.668 182.66Z" fill="black"/>
<path d="M50.3513 182.66C50.3977 182.66 50.4352 182.623 50.4352 182.576C50.4352 182.53 50.3977 182.492 50.3513 182.492C50.3049 182.492 50.2673 182.53 50.2673 182.576C50.2673 182.623 50.3049 182.66 50.3513 182.66Z" fill="black"/>
<path d="M42.8607 181.566C42.9071 181.566 42.9447 181.529 42.9447 181.482C42.9447 181.436 42.9071 181.398 42.8607 181.398C42.8144 181.398 42.7768 181.436 42.7768 181.482C42.7768 181.529 42.8144 181.566 42.8607 181.566Z" fill="black"/>
<path d="M44.5439 181.566C44.5903 181.566 44.6278 181.529 44.6278 181.482C44.6278 181.436 44.5903 181.398 44.5439 181.398C44.4975 181.398 44.46 181.436 44.46 181.482C44.46 181.529 44.4975 181.566 44.5439 181.566Z" fill="black"/>
<path d="M46.1432 181.566C46.1895 181.566 46.2271 181.529 46.2271 181.482C46.2271 181.436 46.1895 181.398 46.1432 181.398C46.0968 181.398 46.0592 181.436 46.0592 181.482C46.0592 181.529 46.0968 181.566 46.1432 181.566Z" fill="black"/>
<path d="M47.8263 181.566C47.8727 181.566 47.9103 181.529 47.9103 181.482C47.9103 181.436 47.8727 181.398 47.8263 181.398C47.78 181.398 47.7424 181.436 47.7424 181.482C47.7424 181.529 47.78 181.566 47.8263 181.566Z" fill="black"/>
<path d="M49.5096 181.566C49.556 181.566 49.5935 181.529 49.5935 181.482C49.5935 181.436 49.556 181.398 49.5096 181.398C49.4633 181.398 49.4257 181.436 49.4257 181.482C49.4257 181.529 49.4633 181.566 49.5096 181.566Z" fill="black"/>
<path d="M51.2769 181.566L51.193 181.65C51.109 181.65 51.109 181.566 51.109 181.566C51.109 181.482 51.109 181.482 51.193 181.482C51.193 181.398 51.2769 181.482 51.2769 181.566Z" fill="black"/>
<path d="M42.0191 184.848C42.0654 184.848 42.103 184.811 42.103 184.764C42.103 184.718 42.0654 184.68 42.0191 184.68C41.9727 184.68 41.9351 184.718 41.9351 184.764C41.9351 184.811 41.9727 184.848 42.0191 184.848Z" fill="black"/>
<path d="M43.7024 184.848C43.7488 184.848 43.7864 184.811 43.7864 184.764C43.7864 184.718 43.7488 184.68 43.7024 184.68C43.656 184.68 43.6185 184.718 43.6185 184.764C43.6185 184.811 43.656 184.848 43.7024 184.848Z" fill="black"/>
<path d="M45.3856 184.848C45.4319 184.848 45.4695 184.811 45.4695 184.764C45.4695 184.718 45.4319 184.68 45.3856 184.68C45.3392 184.68 45.3016 184.718 45.3016 184.764C45.3016 184.811 45.3392 184.848 45.3856 184.848Z" fill="black"/>
<path d="M46.9847 184.848C47.031 184.848 47.0686 184.811 47.0686 184.764C47.0686 184.718 47.031 184.68 46.9847 184.68C46.9383 184.68 46.9007 184.718 46.9007 184.764C46.9007 184.811 46.9383 184.848 46.9847 184.848Z" fill="black"/>
<path d="M48.668 184.848C48.7144 184.848 48.7519 184.811 48.7519 184.764C48.7519 184.718 48.7144 184.68 48.668 184.68C48.6216 184.68 48.584 184.718 48.584 184.764C48.584 184.811 48.6216 184.848 48.668 184.848Z" fill="black"/>
<path d="M50.3513 184.848C50.3977 184.848 50.4352 184.811 50.4352 184.764C50.4352 184.718 50.3977 184.68 50.3513 184.68C50.3049 184.68 50.2673 184.718 50.2673 184.764C50.2673 184.811 50.3049 184.848 50.3513 184.848Z" fill="black"/>
<path d="M52.0346 184.848C52.081 184.848 52.1186 184.811 52.1186 184.764C52.1186 184.718 52.081 184.68 52.0346 184.68C51.9883 184.68 51.9507 184.718 51.9507 184.764C51.9507 184.811 51.9883 184.848 52.0346 184.848Z" fill="black"/>
<path d="M41.1774 183.67C41.2238 183.67 41.2614 183.632 41.2614 183.586C41.2614 183.539 41.2238 183.502 41.1774 183.502C41.1311 183.502 41.0935 183.539 41.0935 183.586C41.0935 183.632 41.1311 183.67 41.1774 183.67Z" fill="black"/>
<path d="M42.8607 183.67C42.9071 183.67 42.9447 183.632 42.9447 183.586C42.9447 183.539 42.9071 183.502 42.8607 183.502C42.8144 183.502 42.7768 183.539 42.7768 183.586C42.7768 183.632 42.8144 183.67 42.8607 183.67Z" fill="black"/>
<path d="M44.5439 183.67C44.5903 183.67 44.6278 183.632 44.6278 183.586C44.6278 183.539 44.5903 183.502 44.5439 183.502C44.4975 183.502 44.46 183.539 44.46 183.586C44.46 183.632 44.4975 183.67 44.5439 183.67Z" fill="black"/>
<path d="M46.1432 183.67C46.1895 183.67 46.2271 183.632 46.2271 183.586C46.2271 183.539 46.1895 183.502 46.1432 183.502C46.0968 183.502 46.0592 183.539 46.0592 183.586C46.0592 183.632 46.0968 183.67 46.1432 183.67Z" fill="black"/>
<path d="M47.8263 183.67C47.8727 183.67 47.9103 183.632 47.9103 183.586C47.9103 183.539 47.8727 183.502 47.8263 183.502C47.78 183.502 47.7424 183.539 47.7424 183.586C47.7424 183.632 47.78 183.67 47.8263 183.67Z" fill="black"/>
<path d="M49.5096 183.67C49.556 183.67 49.5935 183.632 49.5935 183.586C49.5935 183.539 49.556 183.502 49.5096 183.502C49.4633 183.502 49.4257 183.539 49.4257 183.586C49.4257 183.632 49.4633 183.67 49.5096 183.67Z" fill="black"/>
<path d="M51.193 183.67C51.2393 183.67 51.2769 183.632 51.2769 183.586C51.2769 183.539 51.2393 183.502 51.193 183.502C51.1466 183.502 51.109 183.539 51.109 183.586C51.109 183.632 51.1466 183.67 51.193 183.67Z" fill="black"/>
<path d="M40.3358 186.953C40.3821 186.953 40.4197 186.915 40.4197 186.869C40.4197 186.822 40.3821 186.785 40.3358 186.785C40.2894 186.785 40.2518 186.822 40.2518 186.869C40.2518 186.915 40.2894 186.953 40.3358 186.953Z" fill="black"/>
<path d="M42.0191 186.953C42.0654 186.953 42.103 186.915 42.103 186.869C42.103 186.822 42.0654 186.785 42.0191 186.785C41.9727 186.785 41.9351 186.822 41.9351 186.869C41.9351 186.915 41.9727 186.953 42.0191 186.953Z" fill="black"/>
<path d="M43.7024 186.953C43.7488 186.953 43.7864 186.915 43.7864 186.869C43.7864 186.822 43.7488 186.785 43.7024 186.785C43.656 186.785 43.6185 186.822 43.6185 186.869C43.6185 186.915 43.656 186.953 43.7024 186.953Z" fill="black"/>
<path d="M45.3856 186.953C45.4319 186.953 45.4695 186.915 45.4695 186.869C45.4695 186.822 45.4319 186.785 45.3856 186.785C45.3392 186.785 45.3016 186.822 45.3016 186.869C45.3016 186.915 45.3392 186.953 45.3856 186.953Z" fill="black"/>
<path d="M46.9847 186.953C47.031 186.953 47.0686 186.915 47.0686 186.869C47.0686 186.822 47.031 186.785 46.9847 186.785C46.9383 186.785 46.9007 186.822 46.9007 186.869C46.9007 186.915 46.9383 186.953 46.9847 186.953Z" fill="black"/>
<path d="M48.668 186.953C48.7144 186.953 48.7519 186.915 48.7519 186.869C48.7519 186.822 48.7144 186.785 48.668 186.785C48.6216 186.785 48.584 186.822 48.584 186.869C48.584 186.915 48.6216 186.953 48.668 186.953Z" fill="black"/>
<path d="M50.3513 186.953C50.3977 186.953 50.4352 186.915 50.4352 186.869C50.4352 186.822 50.3977 186.785 50.3513 186.785C50.3049 186.785 50.2673 186.822 50.2673 186.869C50.2673 186.915 50.3049 186.953 50.3513 186.953Z" fill="black"/>
<path d="M52.0346 186.953C52.081 186.953 52.1186 186.915 52.1186 186.869C52.1186 186.822 52.081 186.785 52.0346 186.785C51.9883 186.785 51.9507 186.822 51.9507 186.869C51.9507 186.915 51.9883 186.953 52.0346 186.953Z" fill="black"/>
<path d="M41.1774 185.858C41.2238 185.858 41.2614 185.821 41.2614 185.774C41.2614 185.728 41.2238 185.69 41.1774 185.69C41.1311 185.69 41.0935 185.728 41.0935 185.774C41.0935 185.821 41.1311 185.858 41.1774 185.858Z" fill="black"/>
<path d="M42.8607 185.858C42.9071 185.858 42.9447 185.821 42.9447 185.774C42.9447 185.728 42.9071 185.69 42.8607 185.69C42.8144 185.69 42.7768 185.728 42.7768 185.774C42.7768 185.821 42.8144 185.858 42.8607 185.858Z" fill="black"/>
<path d="M44.5439 185.858C44.5903 185.858 44.6278 185.821 44.6278 185.774C44.6278 185.728 44.5903 185.69 44.5439 185.69C44.4975 185.69 44.46 185.728 44.46 185.774C44.46 185.821 44.4975 185.858 44.5439 185.858Z" fill="black"/>
<path d="M46.1432 185.858C46.1895 185.858 46.2271 185.821 46.2271 185.774C46.2271 185.728 46.1895 185.69 46.1432 185.69C46.0968 185.69 46.0592 185.728 46.0592 185.774C46.0592 185.821 46.0968 185.858 46.1432 185.858Z" fill="black"/>
<path d="M47.8263 185.858C47.8727 185.858 47.9103 185.821 47.9103 185.774C47.9103 185.728 47.8727 185.69 47.8263 185.69C47.78 185.69 47.7424 185.728 47.7424 185.774C47.7424 185.821 47.78 185.858 47.8263 185.858Z" fill="black"/>
<path d="M49.5096 185.858C49.556 185.858 49.5935 185.821 49.5935 185.774C49.5935 185.728 49.556 185.69 49.5096 185.69C49.4633 185.69 49.4257 185.728 49.4257 185.774C49.4257 185.821 49.4633 185.858 49.5096 185.858Z" fill="black"/>
<path d="M51.193 185.858C51.2393 185.858 51.2769 185.821 51.2769 185.774C51.2769 185.728 51.2393 185.69 51.193 185.69C51.1466 185.69 51.109 185.728 51.109 185.774C51.109 185.821 51.1466 185.858 51.193 185.858Z" fill="black"/>
<path d="M52.8761 185.858C52.9225 185.858 52.9601 185.821 52.9601 185.774C52.9601 185.728 52.9225 185.69 52.8761 185.69C52.8298 185.69 52.7922 185.728 52.7922 185.774C52.7922 185.821 52.8298 185.858 52.8761 185.858Z" fill="black"/>
<path d="M40.3358 189.141C40.3821 189.141 40.4197 189.103 40.4197 189.057C40.4197 189.01 40.3821 188.973 40.3358 188.973C40.2894 188.973 40.2518 189.01 40.2518 189.057C40.2518 189.103 40.2894 189.141 40.3358 189.141Z" fill="black"/>
<path d="M42.0191 189.141C42.0654 189.141 42.103 189.103 42.103 189.057C42.103 189.01 42.0654 188.973 42.0191 188.973C41.9727 188.973 41.9351 189.01 41.9351 189.057C41.9351 189.103 41.9727 189.141 42.0191 189.141Z" fill="black"/>
<path d="M43.7024 189.141C43.7488 189.141 43.7864 189.103 43.7864 189.057C43.7864 189.01 43.7488 188.973 43.7024 188.973C43.656 188.973 43.6185 189.01 43.6185 189.057C43.6185 189.103 43.656 189.141 43.7024 189.141Z" fill="black"/>
<path d="M45.3856 189.141C45.4319 189.141 45.4695 189.103 45.4695 189.057C45.4695 189.01 45.4319 188.973 45.3856 188.973C45.3392 188.973 45.3016 189.01 45.3016 189.057C45.3016 189.103 45.3392 189.141 45.3856 189.141Z" fill="black"/>
<path d="M46.9847 189.141C47.031 189.141 47.0686 189.103 47.0686 189.057C47.0686 189.01 47.031 188.973 46.9847 188.973C46.9383 188.973 46.9007 189.01 46.9007 189.057C46.9007 189.103 46.9383 189.141 46.9847 189.141Z" fill="black"/>
<path d="M48.668 189.141C48.7144 189.141 48.7519 189.103 48.7519 189.057C48.7519 189.01 48.7144 188.973 48.668 188.973C48.6216 188.973 48.584 189.01 48.584 189.057C48.584 189.103 48.6216 189.141 48.668 189.141Z" fill="black"/>
<path d="M50.3513 189.141C50.3977 189.141 50.4352 189.103 50.4352 189.057C50.4352 189.01 50.3977 188.973 50.3513 188.973C50.3049 188.973 50.2673 189.01 50.2673 189.057C50.2673 189.103 50.3049 189.141 50.3513 189.141Z" fill="black"/>
<path d="M52.0346 189.141C52.081 189.141 52.1186 189.103 52.1186 189.057C52.1186 189.01 52.081 188.973 52.0346 188.973C51.9883 188.973 51.9507 189.01 51.9507 189.057C51.9507 189.103 51.9883 189.141 52.0346 189.141Z" fill="black"/>
<path d="M41.1774 188.047C41.2238 188.047 41.2614 188.009 41.2614 187.963C41.2614 187.917 41.2238 187.879 41.1774 187.879C41.1311 187.879 41.0935 187.917 41.0935 187.963C41.0935 188.009 41.1311 188.047 41.1774 188.047Z" fill="black"/>
<path d="M42.8607 188.047C42.9071 188.047 42.9447 188.009 42.9447 187.963C42.9447 187.917 42.9071 187.879 42.8607 187.879C42.8144 187.879 42.7768 187.917 42.7768 187.963C42.7768 188.009 42.8144 188.047 42.8607 188.047Z" fill="black"/>
<path d="M44.5439 188.047C44.5903 188.047 44.6278 188.009 44.6278 187.963C44.6278 187.917 44.5903 187.879 44.5439 187.879C44.4975 187.879 44.46 187.917 44.46 187.963C44.46 188.009 44.4975 188.047 44.5439 188.047Z" fill="black"/>
<path d="M46.1432 188.047C46.1895 188.047 46.2271 188.009 46.2271 187.963C46.2271 187.917 46.1895 187.879 46.1432 187.879C46.0968 187.879 46.0592 187.917 46.0592 187.963C46.0592 188.009 46.0968 188.047 46.1432 188.047Z" fill="black"/>
<path d="M47.8263 188.047C47.8727 188.047 47.9103 188.009 47.9103 187.963C47.9103 187.917 47.8727 187.879 47.8263 187.879C47.78 187.879 47.7424 187.917 47.7424 187.963C47.7424 188.009 47.78 188.047 47.8263 188.047Z" fill="black"/>
<path d="M49.5096 188.047C49.556 188.047 49.5935 188.009 49.5935 187.963C49.5935 187.917 49.556 187.879 49.5096 187.879C49.4633 187.879 49.4257 187.917 49.4257 187.963C49.4257 188.009 49.4633 188.047 49.5096 188.047Z" fill="black"/>
<path d="M51.193 188.047C51.2393 188.047 51.2769 188.009 51.2769 187.963C51.2769 187.917 51.2393 187.879 51.193 187.879C51.1466 187.879 51.109 187.917 51.109 187.963C51.109 188.009 51.1466 188.047 51.193 188.047Z" fill="black"/>
<path d="M52.8761 188.047C52.9225 188.047 52.9601 188.009 52.9601 187.963C52.9601 187.917 52.9225 187.879 52.8761 187.879C52.8298 187.879 52.7922 187.917 52.7922 187.963C52.7922 188.009 52.8298 188.047 52.8761 188.047Z" fill="black"/>
<path d="M41.1774 190.151C41.2238 190.151 41.2614 190.113 41.2614 190.067C41.2614 190.02 41.2238 189.983 41.1774 189.983C41.1311 189.983 41.0935 190.02 41.0935 190.067C41.0935 190.113 41.1311 190.151 41.1774 190.151Z" fill="black"/>
<path d="M42.8607 190.151C42.9071 190.151 42.9447 190.113 42.9447 190.067C42.9447 190.02 42.9071 189.983 42.8607 189.983C42.8144 189.983 42.7768 190.02 42.7768 190.067C42.7768 190.113 42.8144 190.151 42.8607 190.151Z" fill="black"/>
<path d="M44.5439 190.151C44.5903 190.151 44.6278 190.113 44.6278 190.067C44.6278 190.02 44.5903 189.983 44.5439 189.983C44.4975 189.983 44.46 190.02 44.46 190.067C44.46 190.113 44.4975 190.151 44.5439 190.151Z" fill="black"/>
<path d="M46.1432 190.151C46.1895 190.151 46.2271 190.113 46.2271 190.067C46.2271 190.02 46.1895 189.983 46.1432 189.983C46.0968 189.983 46.0592 190.02 46.0592 190.067C46.0592 190.113 46.0968 190.151 46.1432 190.151Z" fill="black"/>
<path d="M47.8263 190.151C47.8727 190.151 47.9103 190.113 47.9103 190.067C47.9103 190.02 47.8727 189.983 47.8263 189.983C47.78 189.983 47.7424 190.02 47.7424 190.067C47.7424 190.113 47.78 190.151 47.8263 190.151Z" fill="black"/>
<path d="M49.5096 190.151C49.556 190.151 49.5935 190.113 49.5935 190.067C49.5935 190.02 49.556 189.983 49.5096 189.983C49.4633 189.983 49.4257 190.02 49.4257 190.067C49.4257 190.113 49.4633 190.151 49.5096 190.151Z" fill="black"/>
<path d="M51.193 190.151C51.2393 190.151 51.2769 190.113 51.2769 190.067C51.2769 190.02 51.2393 189.983 51.193 189.983C51.1466 189.983 51.109 190.02 51.109 190.067C51.109 190.113 51.1466 190.151 51.193 190.151Z" fill="black"/>
</g>
<path opacity="0.1" d="M43.8707 182.324C44.3355 182.324 44.7123 181.947 44.7123 181.482C44.7123 181.018 44.3355 180.641 43.8707 180.641C43.4059 180.641 43.0291 181.018 43.0291 181.482C43.0291 181.947 43.4059 182.324 43.8707 182.324Z" fill="black"/>
<path opacity="0.1" d="M49.3414 182.324C49.8062 182.324 50.183 181.947 50.183 181.482C50.183 181.018 49.8062 180.641 49.3414 180.641C48.8766 180.641 48.4998 181.018 48.4998 181.482C48.4998 181.947 48.8766 182.324 49.3414 182.324Z" fill="black"/>
<path d="M43.8708 182.071C44.1962 182.071 44.46 181.808 44.46 181.482C44.46 181.157 44.1962 180.893 43.8708 180.893C43.5455 180.893 43.2817 181.157 43.2817 181.482C43.2817 181.808 43.5455 182.071 43.8708 182.071Z" fill="#263238"/>
<path d="M49.3414 182.071C49.6668 182.071 49.9306 181.808 49.9306 181.482C49.9306 181.157 49.6668 180.893 49.3414 180.893C49.016 180.893 48.7523 181.157 48.7523 181.482C48.7523 181.808 49.016 182.071 49.3414 182.071Z" fill="#263238"/>
<path d="M49.3413 181.651C49.173 181.651 49.0047 181.482 49.0047 181.314C49.0047 181.146 48.9205 179.715 48.4997 178.368C48.1631 177.19 47.5739 175.843 46.6481 175.843C44.8807 175.843 44.2074 180.388 44.2074 181.314C44.2074 181.482 44.039 181.651 43.8707 181.651C43.7024 181.651 43.5341 181.482 43.5341 181.314C43.5341 181.23 43.8707 175.254 46.6481 175.254C49.2572 175.254 49.5938 181.314 49.5938 181.314C49.5938 181.482 49.5097 181.651 49.3413 181.651Z" fill="#4B8CA9"/>
<path d="M80.7344 172.897H61.0402V192.591H80.7344V172.897Z" fill="#EBEBEB"/>
<path d="M75.7688 190.235H65.9217C63.2285 190.235 63.7334 188.131 64.3226 185.858C64.9959 183.67 65.9217 180.219 68.2783 180.219C70.6348 180.219 70.8032 180.219 70.8032 180.219C70.8032 180.219 70.9715 180.219 73.3281 180.219C75.6847 180.219 76.6105 183.586 77.2838 185.858C78.0413 188.131 78.4621 190.235 75.7688 190.235Z" fill="#A6A6A6"/>
<g opacity="0.1">
<path d="M67.9416 180.472C67.9879 180.472 68.0255 180.434 68.0255 180.388C68.0255 180.342 67.9879 180.304 67.9416 180.304C67.8952 180.304 67.8576 180.342 67.8576 180.388C67.8576 180.434 67.8952 180.472 67.9416 180.472Z" fill="black"/>
<path d="M69.6247 180.472C69.6711 180.472 69.7087 180.434 69.7087 180.388C69.7087 180.342 69.6711 180.304 69.6247 180.304C69.5784 180.304 69.5408 180.342 69.5408 180.388C69.5408 180.434 69.5784 180.472 69.6247 180.472Z" fill="black"/>
<path d="M71.3081 180.472C71.3544 180.472 71.392 180.434 71.392 180.388C71.392 180.342 71.3544 180.304 71.3081 180.304C71.2617 180.304 71.2241 180.342 71.2241 180.388C71.2241 180.434 71.2617 180.472 71.3081 180.472Z" fill="black"/>
<path d="M72.9914 180.472C73.0377 180.472 73.0753 180.434 73.0753 180.388C73.0753 180.342 73.0377 180.304 72.9914 180.304C72.945 180.304 72.9074 180.342 72.9074 180.388C72.9074 180.434 72.945 180.472 72.9914 180.472Z" fill="black"/>
<path d="M66.2583 182.66C66.3046 182.66 66.3422 182.623 66.3422 182.576C66.3422 182.53 66.3046 182.493 66.2583 182.493C66.2119 182.493 66.1743 182.53 66.1743 182.576C66.1743 182.623 66.2119 182.66 66.2583 182.66Z" fill="black"/>
<path d="M67.9416 182.66C67.9879 182.66 68.0255 182.623 68.0255 182.576C68.0255 182.53 67.9879 182.493 67.9416 182.493C67.8952 182.493 67.8576 182.53 67.8576 182.576C67.8576 182.623 67.8952 182.66 67.9416 182.66Z" fill="black"/>
<path d="M69.6247 182.66C69.6711 182.66 69.7087 182.623 69.7087 182.576C69.7087 182.53 69.6711 182.493 69.6247 182.493C69.5784 182.493 69.5408 182.53 69.5408 182.576C69.5408 182.623 69.5784 182.66 69.6247 182.66Z" fill="black"/>
<path d="M71.3081 182.66C71.3544 182.66 71.392 182.623 71.392 182.576C71.392 182.53 71.3544 182.493 71.3081 182.493C71.2617 182.493 71.2241 182.53 71.2241 182.576C71.2241 182.623 71.2617 182.66 71.3081 182.66Z" fill="black"/>
<path d="M72.9914 182.66C73.0377 182.66 73.0753 182.623 73.0753 182.576C73.0753 182.53 73.0377 182.493 72.9914 182.493C72.945 182.493 72.9074 182.53 72.9074 182.576C72.9074 182.623 72.945 182.66 72.9914 182.66Z" fill="black"/>
<path d="M74.6747 182.66C74.721 182.66 74.7586 182.623 74.7586 182.576C74.7586 182.53 74.721 182.493 74.6747 182.493C74.6283 182.493 74.5907 182.53 74.5907 182.576C74.5907 182.623 74.6283 182.66 74.6747 182.66Z" fill="black"/>
<path d="M67.0999 181.566C67.1463 181.566 67.1838 181.529 67.1838 181.482C67.1838 181.436 67.1463 181.398 67.0999 181.398C67.0535 181.398 67.0159 181.436 67.0159 181.482C67.0159 181.529 67.0535 181.566 67.0999 181.566Z" fill="black"/>
<path d="M68.7832 181.566C68.8296 181.566 68.8672 181.529 68.8672 181.482C68.8672 181.436 68.8296 181.398 68.7832 181.398C68.7369 181.398 68.6993 181.436 68.6993 181.482C68.6993 181.529 68.7369 181.566 68.7832 181.566Z" fill="black"/>
<path d="M70.4664 181.566C70.5128 181.566 70.5504 181.529 70.5504 181.482C70.5504 181.436 70.5128 181.398 70.4664 181.398C70.42 181.398 70.3824 181.436 70.3824 181.482C70.3824 181.529 70.42 181.566 70.4664 181.566Z" fill="black"/>
<path d="M72.1497 181.566C72.1961 181.566 72.2336 181.529 72.2336 181.482C72.2336 181.436 72.1961 181.398 72.1497 181.398C72.1033 181.398 72.0657 181.436 72.0657 181.482C72.0657 181.529 72.1033 181.566 72.1497 181.566Z" fill="black"/>
<path d="M73.833 181.566C73.8794 181.566 73.917 181.529 73.917 181.482C73.917 181.436 73.8794 181.398 73.833 181.398C73.7867 181.398 73.7491 181.436 73.7491 181.482C73.7491 181.529 73.7867 181.566 73.833 181.566Z" fill="black"/>
<path d="M75.6002 181.566L75.5162 181.65C75.4323 181.65 75.4323 181.566 75.4323 181.566C75.4323 181.482 75.4323 181.482 75.5162 181.482C75.5162 181.398 75.5162 181.482 75.6002 181.566Z" fill="black"/>
<path d="M66.2583 184.848C66.3046 184.848 66.3422 184.811 66.3422 184.765C66.3422 184.718 66.3046 184.681 66.2583 184.681C66.2119 184.681 66.1743 184.718 66.1743 184.765C66.1743 184.811 66.2119 184.848 66.2583 184.848Z" fill="black"/>
<path d="M67.9416 184.848C67.9879 184.848 68.0255 184.811 68.0255 184.765C68.0255 184.718 67.9879 184.681 67.9416 184.681C67.8952 184.681 67.8576 184.718 67.8576 184.765C67.8576 184.811 67.8952 184.848 67.9416 184.848Z" fill="black"/>
<path d="M69.6247 184.848C69.6711 184.848 69.7087 184.811 69.7087 184.765C69.7087 184.718 69.6711 184.681 69.6247 184.681C69.5784 184.681 69.5408 184.718 69.5408 184.765C69.5408 184.811 69.5784 184.848 69.6247 184.848Z" fill="black"/>
<path d="M71.3081 184.848C71.3544 184.848 71.392 184.811 71.392 184.765C71.392 184.718 71.3544 184.681 71.3081 184.681C71.2617 184.681 71.2241 184.718 71.2241 184.765C71.2241 184.811 71.2617 184.848 71.3081 184.848Z" fill="black"/>
<path d="M72.9914 184.848C73.0377 184.848 73.0753 184.811 73.0753 184.765C73.0753 184.718 73.0377 184.681 72.9914 184.681C72.945 184.681 72.9074 184.718 72.9074 184.765C72.9074 184.811 72.945 184.848 72.9914 184.848Z" fill="black"/>
<path d="M74.6747 184.848C74.721 184.848 74.7586 184.811 74.7586 184.765C74.7586 184.718 74.721 184.681 74.6747 184.681C74.6283 184.681 74.5907 184.718 74.5907 184.765C74.5907 184.811 74.6283 184.848 74.6747 184.848Z" fill="black"/>
<path d="M76.3578 184.848C76.4042 184.848 76.4418 184.811 76.4418 184.765C76.4418 184.718 76.4042 184.681 76.3578 184.681C76.3115 184.681 76.2739 184.718 76.2739 184.765C76.2739 184.811 76.3115 184.848 76.3578 184.848Z" fill="black"/>
<path d="M65.4166 183.67C65.463 183.67 65.5006 183.632 65.5006 183.586C65.5006 183.54 65.463 183.502 65.4166 183.502C65.3702 183.502 65.3326 183.54 65.3326 183.586C65.3326 183.632 65.3702 183.67 65.4166 183.67Z" fill="black"/>
<path d="M67.0999 183.67C67.1463 183.67 67.1838 183.632 67.1838 183.586C67.1838 183.54 67.1463 183.502 67.0999 183.502C67.0535 183.502 67.0159 183.54 67.0159 183.586C67.0159 183.632 67.0535 183.67 67.0999 183.67Z" fill="black"/>
<path d="M68.7832 183.67C68.8296 183.67 68.8672 183.632 68.8672 183.586C68.8672 183.54 68.8296 183.502 68.7832 183.502C68.7369 183.502 68.6993 183.54 68.6993 183.586C68.6993 183.632 68.7369 183.67 68.7832 183.67Z" fill="black"/>
<path d="M70.4664 183.67C70.5128 183.67 70.5504 183.632 70.5504 183.586C70.5504 183.54 70.5128 183.502 70.4664 183.502C70.42 183.502 70.3824 183.54 70.3824 183.586C70.3824 183.632 70.42 183.67 70.4664 183.67Z" fill="black"/>
<path d="M72.1497 183.67C72.1961 183.67 72.2336 183.632 72.2336 183.586C72.2336 183.54 72.1961 183.502 72.1497 183.502C72.1033 183.502 72.0657 183.54 72.0657 183.586C72.0657 183.632 72.1033 183.67 72.1497 183.67Z" fill="black"/>
<path d="M73.833 183.67C73.8794 183.67 73.917 183.632 73.917 183.586C73.917 183.54 73.8794 183.502 73.833 183.502C73.7867 183.502 73.7491 183.54 73.7491 183.586C73.7491 183.632 73.7867 183.67 73.833 183.67Z" fill="black"/>
<path d="M75.5162 183.67C75.5626 183.67 75.6002 183.632 75.6002 183.586C75.6002 183.54 75.5626 183.502 75.5162 183.502C75.4698 183.502 75.4323 183.54 75.4323 183.586C75.4323 183.632 75.4698 183.67 75.5162 183.67Z" fill="black"/>
<path d="M64.6592 186.953C64.7055 186.953 64.7431 186.915 64.7431 186.869C64.7431 186.822 64.7055 186.785 64.6592 186.785C64.6128 186.785 64.5752 186.822 64.5752 186.869C64.5752 186.915 64.6128 186.953 64.6592 186.953Z" fill="black"/>
<path d="M66.2583 186.953C66.3046 186.953 66.3422 186.915 66.3422 186.869C66.3422 186.822 66.3046 186.785 66.2583 186.785C66.2119 186.785 66.1743 186.822 66.1743 186.869C66.1743 186.915 66.2119 186.953 66.2583 186.953Z" fill="black"/>
<path d="M67.9416 186.953C67.9879 186.953 68.0255 186.915 68.0255 186.869C68.0255 186.822 67.9879 186.785 67.9416 186.785C67.8952 186.785 67.8576 186.822 67.8576 186.869C67.8576 186.915 67.8952 186.953 67.9416 186.953Z" fill="black"/>
<path d="M69.6247 186.953C69.6711 186.953 69.7087 186.915 69.7087 186.869C69.7087 186.822 69.6711 186.785 69.6247 186.785C69.5784 186.785 69.5408 186.822 69.5408 186.869C69.5408 186.915 69.5784 186.953 69.6247 186.953Z" fill="black"/>
<path d="M71.3081 186.953C71.3544 186.953 71.392 186.915 71.392 186.869C71.392 186.822 71.3544 186.785 71.3081 186.785C71.2617 186.785 71.2241 186.822 71.2241 186.869C71.2241 186.915 71.2617 186.953 71.3081 186.953Z" fill="black"/>
<path d="M72.9914 186.953C73.0377 186.953 73.0753 186.915 73.0753 186.869C73.0753 186.822 73.0377 186.785 72.9914 186.785C72.945 186.785 72.9074 186.822 72.9074 186.869C72.9074 186.915 72.945 186.953 72.9914 186.953Z" fill="black"/>
<path d="M74.6747 186.953C74.721 186.953 74.7586 186.915 74.7586 186.869C74.7586 186.822 74.721 186.785 74.6747 186.785C74.6283 186.785 74.5907 186.822 74.5907 186.869C74.5907 186.915 74.6283 186.953 74.6747 186.953Z" fill="black"/>
<path d="M76.3578 186.953C76.4042 186.953 76.4418 186.915 76.4418 186.869C76.4418 186.822 76.4042 186.785 76.3578 186.785C76.3115 186.785 76.2739 186.822 76.2739 186.869C76.2739 186.915 76.3115 186.953 76.3578 186.953Z" fill="black"/>
<path d="M65.4166 185.858C65.463 185.858 65.5006 185.821 65.5006 185.774C65.5006 185.728 65.463 185.69 65.4166 185.69C65.3702 185.69 65.3326 185.728 65.3326 185.774C65.3326 185.821 65.3702 185.858 65.4166 185.858Z" fill="black"/>
<path d="M67.0999 185.858C67.1463 185.858 67.1838 185.821 67.1838 185.774C67.1838 185.728 67.1463 185.69 67.0999 185.69C67.0535 185.69 67.0159 185.728 67.0159 185.774C67.0159 185.821 67.0535 185.858 67.0999 185.858Z" fill="black"/>
<path d="M68.7832 185.858C68.8296 185.858 68.8672 185.821 68.8672 185.774C68.8672 185.728 68.8296 185.69 68.7832 185.69C68.7369 185.69 68.6993 185.728 68.6993 185.774C68.6993 185.821 68.7369 185.858 68.7832 185.858Z" fill="black"/>
<path d="M70.4664 185.858C70.5128 185.858 70.5504 185.821 70.5504 185.774C70.5504 185.728 70.5128 185.69 70.4664 185.69C70.42 185.69 70.3824 185.728 70.3824 185.774C70.3824 185.821 70.42 185.858 70.4664 185.858Z" fill="black"/>
<path d="M72.1497 185.858C72.1961 185.858 72.2336 185.821 72.2336 185.774C72.2336 185.728 72.1961 185.69 72.1497 185.69C72.1033 185.69 72.0657 185.728 72.0657 185.774C72.0657 185.821 72.1033 185.858 72.1497 185.858Z" fill="black"/>
<path d="M73.833 185.858C73.8794 185.858 73.917 185.821 73.917 185.774C73.917 185.728 73.8794 185.69 73.833 185.69C73.7867 185.69 73.7491 185.728 73.7491 185.774C73.7491 185.821 73.7867 185.858 73.833 185.858Z" fill="black"/>
<path d="M75.5162 185.858C75.5626 185.858 75.6002 185.821 75.6002 185.774C75.6002 185.728 75.5626 185.69 75.5162 185.69C75.4698 185.69 75.4323 185.728 75.4323 185.774C75.4323 185.821 75.4698 185.858 75.5162 185.858Z" fill="black"/>
<path d="M77.1995 185.858C77.2459 185.858 77.2835 185.821 77.2835 185.774C77.2835 185.728 77.2459 185.69 77.1995 185.69C77.1531 185.69 77.1155 185.728 77.1155 185.774C77.1155 185.821 77.1531 185.858 77.1995 185.858Z" fill="black"/>
<path d="M64.6592 189.141C64.7055 189.141 64.7431 189.103 64.7431 189.057C64.7431 189.01 64.7055 188.973 64.6592 188.973C64.6128 188.973 64.5752 189.01 64.5752 189.057C64.5752 189.103 64.6128 189.141 64.6592 189.141Z" fill="black"/>
<path d="M66.2583 189.141C66.3046 189.141 66.3422 189.103 66.3422 189.057C66.3422 189.01 66.3046 188.973 66.2583 188.973C66.2119 188.973 66.1743 189.01 66.1743 189.057C66.1743 189.103 66.2119 189.141 66.2583 189.141Z" fill="black"/>
<path d="M67.9416 189.141C67.9879 189.141 68.0255 189.103 68.0255 189.057C68.0255 189.01 67.9879 188.973 67.9416 188.973C67.8952 188.973 67.8576 189.01 67.8576 189.057C67.8576 189.103 67.8952 189.141 67.9416 189.141Z" fill="black"/>
<path d="M69.6247 189.141C69.6711 189.141 69.7087 189.103 69.7087 189.057C69.7087 189.01 69.6711 188.973 69.6247 188.973C69.5784 188.973 69.5408 189.01 69.5408 189.057C69.5408 189.103 69.5784 189.141 69.6247 189.141Z" fill="black"/>
<path d="M71.3081 189.141C71.3544 189.141 71.392 189.103 71.392 189.057C71.392 189.01 71.3544 188.973 71.3081 188.973C71.2617 188.973 71.2241 189.01 71.2241 189.057C71.2241 189.103 71.2617 189.141 71.3081 189.141Z" fill="black"/>
<path d="M72.9914 189.141C73.0377 189.141 73.0753 189.103 73.0753 189.057C73.0753 189.01 73.0377 188.973 72.9914 188.973C72.945 188.973 72.9074 189.01 72.9074 189.057C72.9074 189.103 72.945 189.141 72.9914 189.141Z" fill="black"/>
<path d="M74.6747 189.141C74.721 189.141 74.7586 189.103 74.7586 189.057C74.7586 189.01 74.721 188.973 74.6747 188.973C74.6283 188.973 74.5907 189.01 74.5907 189.057C74.5907 189.103 74.6283 189.141 74.6747 189.141Z" fill="black"/>
<path d="M76.3578 189.141C76.4042 189.141 76.4418 189.103 76.4418 189.057C76.4418 189.01 76.4042 188.973 76.3578 188.973C76.3115 188.973 76.2739 189.01 76.2739 189.057C76.2739 189.103 76.3115 189.141 76.3578 189.141Z" fill="black"/>
<path d="M65.4166 188.047C65.463 188.047 65.5006 188.009 65.5006 187.963C65.5006 187.917 65.463 187.879 65.4166 187.879C65.3702 187.879 65.3326 187.917 65.3326 187.963C65.3326 188.009 65.3702 188.047 65.4166 188.047Z" fill="black"/>
<path d="M67.0999 188.047C67.1463 188.047 67.1838 188.009 67.1838 187.963C67.1838 187.917 67.1463 187.879 67.0999 187.879C67.0535 187.879 67.0159 187.917 67.0159 187.963C67.0159 188.009 67.0535 188.047 67.0999 188.047Z" fill="black"/>
<path d="M68.7832 188.047C68.8296 188.047 68.8672 188.009 68.8672 187.963C68.8672 187.917 68.8296 187.879 68.7832 187.879C68.7369 187.879 68.6993 187.917 68.6993 187.963C68.6993 188.009 68.7369 188.047 68.7832 188.047Z" fill="black"/>
<path d="M70.4664 188.047C70.5128 188.047 70.5504 188.009 70.5504 187.963C70.5504 187.917 70.5128 187.879 70.4664 187.879C70.42 187.879 70.3824 187.917 70.3824 187.963C70.3824 188.009 70.42 188.047 70.4664 188.047Z" fill="black"/>
<path d="M72.1497 188.047C72.1961 188.047 72.2336 188.009 72.2336 187.963C72.2336 187.917 72.1961 187.879 72.1497 187.879C72.1033 187.879 72.0657 187.917 72.0657 187.963C72.0657 188.009 72.1033 188.047 72.1497 188.047Z" fill="black"/>
<path d="M73.833 188.047C73.8794 188.047 73.917 188.009 73.917 187.963C73.917 187.917 73.8794 187.879 73.833 187.879C73.7867 187.879 73.7491 187.917 73.7491 187.963C73.7491 188.009 73.7867 188.047 73.833 188.047Z" fill="black"/>
<path d="M75.5162 188.047C75.5626 188.047 75.6002 188.009 75.6002 187.963C75.6002 187.917 75.5626 187.879 75.5162 187.879C75.4698 187.879 75.4323 187.917 75.4323 187.963C75.4323 188.009 75.4698 188.047 75.5162 188.047Z" fill="black"/>
<path d="M77.1995 188.047C77.2459 188.047 77.2835 188.009 77.2835 187.963C77.2835 187.917 77.2459 187.879 77.1995 187.879C77.1531 187.879 77.1155 187.917 77.1155 187.963C77.1155 188.009 77.1531 188.047 77.1995 188.047Z" fill="black"/>
<path d="M65.4166 190.151C65.463 190.151 65.5006 190.113 65.5006 190.067C65.5006 190.02 65.463 189.983 65.4166 189.983C65.3702 189.983 65.3326 190.02 65.3326 190.067C65.3326 190.113 65.3702 190.151 65.4166 190.151Z" fill="black"/>
<path d="M67.0999 190.151C67.1463 190.151 67.1838 190.113 67.1838 190.067C67.1838 190.02 67.1463 189.983 67.0999 189.983C67.0535 189.983 67.0159 190.02 67.0159 190.067C67.0159 190.113 67.0535 190.151 67.0999 190.151Z" fill="black"/>
<path d="M68.7832 190.151C68.8296 190.151 68.8672 190.113 68.8672 190.067C68.8672 190.02 68.8296 189.983 68.7832 189.983C68.7369 189.983 68.6993 190.02 68.6993 190.067C68.6993 190.113 68.7369 190.151 68.7832 190.151Z" fill="black"/>
<path d="M70.4664 190.151C70.5128 190.151 70.5504 190.113 70.5504 190.067C70.5504 190.02 70.5128 189.983 70.4664 189.983C70.42 189.983 70.3824 190.02 70.3824 190.067C70.3824 190.113 70.42 190.151 70.4664 190.151Z" fill="black"/>
<path d="M72.1497 190.151C72.1961 190.151 72.2336 190.113 72.2336 190.067C72.2336 190.02 72.1961 189.983 72.1497 189.983C72.1033 189.983 72.0657 190.02 72.0657 190.067C72.0657 190.113 72.1033 190.151 72.1497 190.151Z" fill="black"/>
<path d="M73.833 190.151C73.8794 190.151 73.917 190.113 73.917 190.067C73.917 190.02 73.8794 189.983 73.833 189.983C73.7867 189.983 73.7491 190.02 73.7491 190.067C73.7491 190.113 73.7867 190.151 73.833 190.151Z" fill="black"/>
<path d="M75.5162 190.151C75.5626 190.151 75.6002 190.113 75.6002 190.067C75.6002 190.02 75.5626 189.983 75.5162 189.983C75.4698 189.983 75.4323 190.02 75.4323 190.067C75.4323 190.113 75.4698 190.151 75.5162 190.151Z" fill="black"/>
</g>
<path opacity="0.1" d="M68.1941 182.324C68.6589 182.324 69.0358 181.947 69.0358 181.482C69.0358 181.018 68.6589 180.641 68.1941 180.641C67.7293 180.641 67.3525 181.018 67.3525 181.482C67.3525 181.947 67.7293 182.324 68.1941 182.324Z" fill="black"/>
<path opacity="0.1" d="M73.5806 182.324C74.0454 182.324 74.4222 181.947 74.4222 181.482C74.4222 181.018 74.0454 180.641 73.5806 180.641C73.1158 180.641 72.739 181.018 72.739 181.482C72.739 181.947 73.1158 182.324 73.5806 182.324Z" fill="black"/>
<path d="M68.194 182.072C68.5194 182.072 68.7832 181.808 68.7832 181.482C68.7832 181.157 68.5194 180.893 68.194 180.893C67.8687 180.893 67.6049 181.157 67.6049 181.482C67.6049 181.808 67.8687 182.072 68.194 182.072Z" fill="#263238"/>
<path d="M73.5805 182.072C73.9059 182.072 74.1697 181.808 74.1697 181.482C74.1697 181.157 73.9059 180.893 73.5805 180.893C73.2551 180.893 72.9914 181.157 72.9914 181.482C72.9914 181.808 73.2551 182.072 73.5805 182.072Z" fill="#263238"/>
<path d="M73.5805 181.651C73.4122 181.651 73.2438 181.482 73.2438 181.314C73.2438 181.146 73.1597 179.715 72.7388 178.368C72.4022 177.19 71.8131 175.843 70.8873 175.843C69.1198 175.843 68.4465 180.388 68.4465 181.314C68.4465 181.482 68.2782 181.651 68.1098 181.651C67.9415 181.651 67.7732 181.482 67.7732 181.314C67.7732 181.23 68.1099 175.254 70.8873 175.254C73.4963 175.254 73.833 181.314 73.833 181.314C73.9171 181.482 73.7488 181.651 73.5805 181.651Z" fill="#A6A6A6"/>
</svg>
